999
FreeCAD v1.0 39285 (Git)
  0
SECTION
  2
HEADER
  9
$ACADVER
  1
AC1014
  9
$ACADMAINTVER
 70
     9
  9
$DWGCODEPAGE
  3
ANSI_1252
  9
$TEXTSTYLE
  7
STANDARD
  9
$DIMSTYLE
  2
STANDARD
  9
$DIMTXSTY
  7
STANDARD
  9
$CMLSTYLE
  2
STANDARD
  9
$LUNITS
 70
2
  9
$INSUNITS
 70
4
  9
$PEXTMAX
 10
50
 20
50
 30
50
  9
$PEXTMIN
 10
0
 20
0
 30
0
  9
$HANDSEED
  5
FFFF
  0
ENDSEC
  0
SECTION
  2
CLASSES
  0
CLASS
  1
ACDBDICTIONARYWDFLT
  2
AcDbDictionaryWithDefault
  3
ObjectDBX Classes
 90
        0
280
     0
281
     0
  0
CLASS
  1
XRECORD
  2
AcDbXrecord
  3
ObjectDBX Classes
 90
        0
280
     0
281
     0
  0
CLASS
  1
LWPOLYLINE
  2
AcDbPolyline
  3
ObjectDBX Classes
 90
        0
280
     0
281
     1
  0
ENDSEC
  0
SECTION
  2
TABLES
  0
TABLE
  2
VPORT
  5
20
330
0
100
AcDbSymbolTable
 70
     1
  0
VPORT
  5
21
330
20
100
AcDbSymbolTableRecord
100
AcDbViewportTableRecord
  2
*ACTIVE
 70
     0
  0
ENDTAB
  0
TABLE
  2
LTYPE
  5
22
330
0
100
AcDbSymbolTable
 70
     1
  0
LTYPE
  5
23
330
21
100
AcDbSymbolTableRecord
100
AcDbLinetypeTableRecord
  2
BYBLOCK
 70
     0
  3

 72
    65
 73
     0
 40
0.0
  0
LTYPE
  5
24
330
21
100
AcDbSymbolTableRecord
100
AcDbLinetypeTableRecord
  2
BYLAYER
 70
     0
  3

 72
    65
 73
     0
 40
0.0
  0
LTYPE
  5
25
330
21
100
AcDbSymbolTableRecord
100
AcDbLinetypeTableRecord
  2
CONTINUOUS
 70
     0
  3
Solid line
 72
    65
 73
     0
 40
0.0
  0
ENDTAB
  0
TABLE
  2
LAYER
  5
B4F
330
0
100
AcDbSymbolTable
 70
2
  0
LAYER
  5
B50
330
B4F
100
AcDbSymbolTableRecord
100
AcDbLayerTableRecord
  2
0
 70
   0
 62
   7
  6
CONTINUOUS
  0
LAYER
  5
B51
330
B4F
100
AcDbSymbolTableRecord
100
AcDbLayerTableRecord
  2
View002
 70
    0
 62
    7
  6
CONTINUOUS
  0
ENDTAB
  0
TABLE
  2
STYLE
  5
70
330
0
100
AcDbSymbolTable
 70
     2
  0
STYLE
  5
71
330
70
100
AcDbSymbolTableRecord
100
AcDbTextStyleTableRecord
  2
STANDARD
 70
     0
 40
0.0
 41
1.0
 50
0.0
 71
     0
 42
2.5
  3
arial.ttf
  4

  0
STYLE
  5
72
330
70
100
AcDbSymbolTableRecord
100
AcDbTextStyleTableRecord
  2
ANNOTATIVE
 70
     0
 40
0.0
 41
1.0
 50
0.0
 71
     0
 42
2.5
  3
arial.ttf
  4

  0
ENDTAB
  0
TABLE
  2
VIEW
  5
73
330
0
100
AcDbSymbolTable
 70
     0
  0
ENDTAB
  0
TABLE
  2
UCS
  5
74
330
0
100
AcDbSymbolTable
 70
     0
  0
ENDTAB
  0
TABLE
  2
APPID
  5
75
330
0
100
AcDbSymbolTable
 70
     2
  0
APPID
  5
76
330
75
100
AcDbSymbolTableRecord
100
AcDbRegAppTableRecord
  2
ACAD
 70
     0
  0
APPID
  5
77
330
75
100
AcDbSymbolTableRecord
100
AcDbRegAppTableRecord
  2
ACADANNOTATIVE
 70
     0
  0
ENDTAB
  0
TABLE
  2
DIMSTYLE
  5
78
330
0
100
AcDbSymbolTable
 70
     2
  0
DIMSTYLE
105
79
330
78
100
AcDbSymbolTableRecord
100
AcDbDimStyleTableRecord
  2
STANDARD
 70
     0
  3

  4

  5

  6

  7

 40
0.0
 41
2.5
 42
0.625
 43
3.75
 44
1.25
 45
0.0
 46
0.0
 47
0.0
 48
0.0
140
2.5
141
2.5
142
0.0
143
0.03937007874016
144
1.0
145
0.0
146
1.0
147
0.625
 71
     0
 72
     0
 73
     0
 74
     0
 75
     0
 76
     0
 77
     1
 78
     8
170
     0
171
     3
172
     1
173
     0
174
     0
175
     0
176
     0
177
     0
178
     0
270
     2
271
     2
272
     2
273
     2
274
     3
340
71
275
     0
280
     0
281
     0
282
     0
283
     0
284
     8
285
     0
286
     0
287
     3
288
     0
  0
ENDTAB
  0
TABLE
  2
BLOCK_RECORD
  5
A01
330
0
100
AcDbSymbolTable
  70
5
  0
BLOCK_RECORD
  5
A02
330
A01
100
AcDbSymbolTableRecord
100
AcDbBlockTableRecord
  2
*MODEL_SPACE
  0
BLOCK_RECORD
  5
A03
330
A01
100
AcDbSymbolTableRecord
100
AcDbBlockTableRecord
  2
*PAPER_SPACE
  0
ENDTAB
  0
ENDSEC
  0
SECTION
  2
BLOCKS
  0
BLOCK
  5
A04
330
A02
100
AcDbEntity
  8
0
100
AcDbBlockBegin
  2
*MODEL_SPACE
 70
   0
 10
0
 20
0
 30
0
  3
*MODEL_SPACE
  1
 
  0
ENDBLK
  5
A05
330
A02
100
AcDbEntity
  8
0
100
AcDbBlockEnd
  0
BLOCK
  5
A06
330
A03
100
AcDbEntity
 67
1
  8
0
100
AcDbBlockBegin
  2
*PAPER_SPACE
 70
   0
 10
0
 20
0
 30
0
  3
*PAPER_SPACE
  1
 
  0
ENDBLK
  5
A07
330
A03
100
AcDbEntity
 67
    1
  8
0
100
AcDbBlockEnd
  0
ENDSEC
  0
SECTION
  2
ENTITIES
  0
LINE
  5
A08
330
A02
100
AcDbEntity
  8
View002
100
AcDbLine
 10
179.900000000
 20
60.250000000
 30
0.000000000
 11
179.900000000
 21
67.650000000
 31
0.000000000
  0
LINE
  5
A09
330
A02
100
AcDbEntity
  8
View002
100
AcDbLine
 10
165.500000000
 20
60.250000000
 30
0.000000000
 11
179.900000000
 21
60.250000000
 31
0.000000000
  0
LINE
  5
A0A
330
A02
100
AcDbEntity
  8
View002
100
AcDbLine
 10
179.900000000
 20
67.650000000
 30
0.000000000
 11
165.500000000
 21
67.650000000
 31
0.000000000
  0
LINE
  5
A0B
330
A02
100
AcDbEntity
  8
View002
100
AcDbLine
 10
165.500000000
 20
67.650000000
 30
0.000000000
 11
165.500000000
 21
60.250000000
 31
0.000000000
  0
LINE
  5
A0C
330
A02
100
AcDbEntity
  8
View002
100
AcDbLine
 10
179.500000000
 20
62.200000000
 30
0.000000000
 11
178.700000000
 21
62.200000000
 31
0.000000000
  0
LINE
  5
A0D
330
A02
100
AcDbEntity
  8
View002
100
AcDbLine
 10
177.700000000
 20
62.200000000
 30
0.000000000
 11
178.700000000
 21
62.200000000
 31
0.000000000
  0
LINE
  5
A0E
330
A02
100
AcDbEntity
  8
View002
100
AcDbLine
 10
177.700000000
 20
65.700000000
 30
0.000000000
 11
177.700000000
 21
62.200000000
 31
0.000000000
  0
LINE
  5
A0F
330
A02
100
AcDbEntity
  8
View002
100
AcDbLine
 10
178.700000000
 20
65.700000000
 30
0.000000000
 11
177.700000000
 21
65.700000000
 31
0.000000000
  0
LINE
  5
A10
330
A02
100
AcDbEntity
  8
View002
100
AcDbLine
 10
179.500000000
 20
65.700000000
 30
0.000000000
 11
178.700000000
 21
65.700000000
 31
0.000000000
  0
LINE
  5
A11
330
A02
100
AcDbEntity
  8
View002
100
AcDbLine
 10
165.900000000
 20
65.700000000
 30
0.000000000
 11
166.700000000
 21
65.700000000
 31
0.000000000
  0
LINE
  5
A12
330
A02
100
AcDbEntity
  8
View002
100
AcDbLine
 10
167.700000000
 20
65.700000000
 30
0.000000000
 11
166.700000000
 21
65.700000000
 31
0.000000000
  0
LINE
  5
A13
330
A02
100
AcDbEntity
  8
View002
100
AcDbLine
 10
166.700000000
 20
62.200000000
 30
0.000000000
 11
167.700000000
 21
62.200000000
 31
0.000000000
  0
LINE
  5
A14
330
A02
100
AcDbEntity
  8
View002
100
AcDbLine
 10
165.900000000
 20
62.200000000
 30
0.000000000
 11
166.700000000
 21
62.200000000
 31
0.000000000
  0
LINE
  5
A15
330
A02
100
AcDbEntity
  8
View002
100
AcDbLine
 10
167.700000000
 20
62.200000000
 30
0.000000000
 11
167.700000000
 21
65.700000000
 31
0.000000000
  0
CIRCLE
  5
A16
330
A02
100
AcDbEntity
  8
View002
100
AcDbCircle
 10
172.700000000
 20
63.950000000
 30
0.000000000
 40
1.000000000
  0
LINE
  5
A17
330
A02
100
AcDbEntity
  8
View002
100
AcDbLine
 10
180.700000000
 20
68.450000000
 30
0.000000000
 11
180.700000000
 21
59.450000000
 31
0.000000000
  0
LINE
  5
A18
330
A02
100
AcDbEntity
  8
View002
100
AcDbLine
 10
164.700000000
 20
68.450000000
 30
0.000000000
 11
180.700000000
 21
68.450000000
 31
0.000000000
  0
LINE
  5
A19
330
A02
100
AcDbEntity
  8
View002
100
AcDbLine
 10
180.700000000
 20
59.450000000
 30
0.000000000
 11
164.700000000
 21
59.450000000
 31
0.000000000
  0
LINE
  5
A1A
330
A02
100
AcDbEntity
  8
View002
100
AcDbLine
 10
164.700000000
 20
59.450000000
 30
0.000000000
 11
164.700000000
 21
68.450000000
 31
0.000000000
  0
LINE
  5
A1B
330
A02
100
AcDbEntity
  8
View002
100
AcDbLine
 10
179.500000000
 20
65.700000000
 30
0.000000000
 11
179.500000000
 21
62.200000000
 31
0.000000000
  0
LINE
  5
A1C
330
A02
100
AcDbEntity
  8
View002
100
AcDbLine
 10
178.700000000
 20
62.200000000
 30
0.000000000
 11
178.700000000
 21
65.700000000
 31
0.000000000
  0
LINE
  5
A1D
330
A02
100
AcDbEntity
  8
View002
100
AcDbLine
 10
165.900000000
 20
65.700000000
 30
0.000000000
 11
165.900000000
 21
62.200000000
 31
0.000000000
  0
LINE
  5
A1E
330
A02
100
AcDbEntity
  8
View002
100
AcDbLine
 10
166.700000000
 20
65.700000000
 30
0.000000000
 11
166.700000000
 21
62.200000000
 31
0.000000000
  0
LINE
  5
A1F
330
A02
100
AcDbEntity
  8
View002
100
AcDbLine
 10
162.900000000
 20
60.250000000
 30
0.000000000
 11
162.900000000
 21
67.650000000
 31
0.000000000
  0
LINE
  5
A20
330
A02
100
AcDbEntity
  8
View002
100
AcDbLine
 10
148.500000000
 20
60.250000000
 30
0.000000000
 11
162.900000000
 21
60.250000000
 31
0.000000000
  0
LINE
  5
A21
330
A02
100
AcDbEntity
  8
View002
100
AcDbLine
 10
162.900000000
 20
67.650000000
 30
0.000000000
 11
148.500000000
 21
67.650000000
 31
0.000000000
  0
LINE
  5
A22
330
A02
100
AcDbEntity
  8
View002
100
AcDbLine
 10
148.500000000
 20
67.650000000
 30
0.000000000
 11
148.500000000
 21
60.250000000
 31
0.000000000
  0
LINE
  5
A23
330
A02
100
AcDbEntity
  8
View002
100
AcDbLine
 10
162.500000000
 20
62.200000000
 30
0.000000000
 11
161.700000000
 21
62.200000000
 31
0.000000000
  0
LINE
  5
A24
330
A02
100
AcDbEntity
  8
View002
100
AcDbLine
 10
160.700000000
 20
62.200000000
 30
0.000000000
 11
161.700000000
 21
62.200000000
 31
0.000000000
  0
LINE
  5
A25
330
A02
100
AcDbEntity
  8
View002
100
AcDbLine
 10
160.700000000
 20
65.700000000
 30
0.000000000
 11
160.700000000
 21
62.200000000
 31
0.000000000
  0
LINE
  5
A26
330
A02
100
AcDbEntity
  8
View002
100
AcDbLine
 10
161.700000000
 20
65.700000000
 30
0.000000000
 11
160.700000000
 21
65.700000000
 31
0.000000000
  0
LINE
  5
A27
330
A02
100
AcDbEntity
  8
View002
100
AcDbLine
 10
162.500000000
 20
65.700000000
 30
0.000000000
 11
161.700000000
 21
65.700000000
 31
0.000000000
  0
LINE
  5
A28
330
A02
100
AcDbEntity
  8
View002
100
AcDbLine
 10
148.900000000
 20
65.700000000
 30
0.000000000
 11
149.700000000
 21
65.700000000
 31
0.000000000
  0
LINE
  5
A29
330
A02
100
AcDbEntity
  8
View002
100
AcDbLine
 10
150.700000000
 20
65.700000000
 30
0.000000000
 11
149.700000000
 21
65.700000000
 31
0.000000000
  0
LINE
  5
A2A
330
A02
100
AcDbEntity
  8
View002
100
AcDbLine
 10
149.700000000
 20
62.200000000
 30
0.000000000
 11
150.700000000
 21
62.200000000
 31
0.000000000
  0
LINE
  5
A2B
330
A02
100
AcDbEntity
  8
View002
100
AcDbLine
 10
148.900000000
 20
62.200000000
 30
0.000000000
 11
149.700000000
 21
62.200000000
 31
0.000000000
  0
LINE
  5
A2C
330
A02
100
AcDbEntity
  8
View002
100
AcDbLine
 10
150.700000000
 20
62.200000000
 30
0.000000000
 11
150.700000000
 21
65.700000000
 31
0.000000000
  0
CIRCLE
  5
A2D
330
A02
100
AcDbEntity
  8
View002
100
AcDbCircle
 10
155.700000000
 20
63.950000000
 30
0.000000000
 40
1.000000000
  0
LINE
  5
A2E
330
A02
100
AcDbEntity
  8
View002
100
AcDbLine
 10
163.700000000
 20
68.450000000
 30
0.000000000
 11
163.700000000
 21
59.450000000
 31
0.000000000
  0
LINE
  5
A2F
330
A02
100
AcDbEntity
  8
View002
100
AcDbLine
 10
147.700000000
 20
68.450000000
 30
0.000000000
 11
163.700000000
 21
68.450000000
 31
0.000000000
  0
LINE
  5
A30
330
A02
100
AcDbEntity
  8
View002
100
AcDbLine
 10
163.700000000
 20
59.450000000
 30
0.000000000
 11
147.700000000
 21
59.450000000
 31
0.000000000
  0
LINE
  5
A31
330
A02
100
AcDbEntity
  8
View002
100
AcDbLine
 10
147.700000000
 20
59.450000000
 30
0.000000000
 11
147.700000000
 21
68.450000000
 31
0.000000000
  0
LINE
  5
A32
330
A02
100
AcDbEntity
  8
View002
100
AcDbLine
 10
162.500000000
 20
65.700000000
 30
0.000000000
 11
162.500000000
 21
62.200000000
 31
0.000000000
  0
LINE
  5
A33
330
A02
100
AcDbEntity
  8
View002
100
AcDbLine
 10
161.700000000
 20
62.200000000
 30
0.000000000
 11
161.700000000
 21
65.700000000
 31
0.000000000
  0
LINE
  5
A34
330
A02
100
AcDbEntity
  8
View002
100
AcDbLine
 10
148.900000000
 20
65.700000000
 30
0.000000000
 11
148.900000000
 21
62.200000000
 31
0.000000000
  0
LINE
  5
A35
330
A02
100
AcDbEntity
  8
View002
100
AcDbLine
 10
149.700000000
 20
65.700000000
 30
0.000000000
 11
149.700000000
 21
62.200000000
 31
0.000000000
  0
LINE
  5
A36
330
A02
100
AcDbEntity
  8
View002
100
AcDbLine
 10
145.900000000
 20
60.250000000
 30
0.000000000
 11
145.900000000
 21
67.650000000
 31
0.000000000
  0
LINE
  5
A37
330
A02
100
AcDbEntity
  8
View002
100
AcDbLine
 10
131.500000000
 20
60.250000000
 30
0.000000000
 11
145.900000000
 21
60.250000000
 31
0.000000000
  0
LINE
  5
A38
330
A02
100
AcDbEntity
  8
View002
100
AcDbLine
 10
145.900000000
 20
67.650000000
 30
0.000000000
 11
131.500000000
 21
67.650000000
 31
0.000000000
  0
LINE
  5
A39
330
A02
100
AcDbEntity
  8
View002
100
AcDbLine
 10
131.500000000
 20
67.650000000
 30
0.000000000
 11
131.500000000
 21
60.250000000
 31
0.000000000
  0
LINE
  5
A3A
330
A02
100
AcDbEntity
  8
View002
100
AcDbLine
 10
145.500000000
 20
62.200000000
 30
0.000000000
 11
144.700000000
 21
62.200000000
 31
0.000000000
  0
LINE
  5
A3B
330
A02
100
AcDbEntity
  8
View002
100
AcDbLine
 10
143.700000000
 20
62.200000000
 30
0.000000000
 11
144.700000000
 21
62.200000000
 31
0.000000000
  0
LINE
  5
A3C
330
A02
100
AcDbEntity
  8
View002
100
AcDbLine
 10
143.700000000
 20
65.700000000
 30
0.000000000
 11
143.700000000
 21
62.200000000
 31
0.000000000
  0
LINE
  5
A3D
330
A02
100
AcDbEntity
  8
View002
100
AcDbLine
 10
144.700000000
 20
65.700000000
 30
0.000000000
 11
143.700000000
 21
65.700000000
 31
0.000000000
  0
LINE
  5
A3E
330
A02
100
AcDbEntity
  8
View002
100
AcDbLine
 10
145.500000000
 20
65.700000000
 30
0.000000000
 11
144.700000000
 21
65.700000000
 31
0.000000000
  0
LINE
  5
A3F
330
A02
100
AcDbEntity
  8
View002
100
AcDbLine
 10
131.900000000
 20
65.700000000
 30
0.000000000
 11
132.700000000
 21
65.700000000
 31
0.000000000
  0
LINE
  5
A40
330
A02
100
AcDbEntity
  8
View002
100
AcDbLine
 10
133.700000000
 20
65.700000000
 30
0.000000000
 11
132.700000000
 21
65.700000000
 31
0.000000000
  0
LINE
  5
A41
330
A02
100
AcDbEntity
  8
View002
100
AcDbLine
 10
132.700000000
 20
62.200000000
 30
0.000000000
 11
133.700000000
 21
62.200000000
 31
0.000000000
  0
LINE
  5
A42
330
A02
100
AcDbEntity
  8
View002
100
AcDbLine
 10
131.900000000
 20
62.200000000
 30
0.000000000
 11
132.700000000
 21
62.200000000
 31
0.000000000
  0
LINE
  5
A43
330
A02
100
AcDbEntity
  8
View002
100
AcDbLine
 10
133.700000000
 20
62.200000000
 30
0.000000000
 11
133.700000000
 21
65.700000000
 31
0.000000000
  0
CIRCLE
  5
A44
330
A02
100
AcDbEntity
  8
View002
100
AcDbCircle
 10
138.700000000
 20
63.950000000
 30
0.000000000
 40
1.000000000
  0
LINE
  5
A45
330
A02
100
AcDbEntity
  8
View002
100
AcDbLine
 10
146.700000000
 20
68.450000000
 30
0.000000000
 11
146.700000000
 21
59.450000000
 31
0.000000000
  0
LINE
  5
A46
330
A02
100
AcDbEntity
  8
View002
100
AcDbLine
 10
130.700000000
 20
68.450000000
 30
0.000000000
 11
146.700000000
 21
68.450000000
 31
0.000000000
  0
LINE
  5
A47
330
A02
100
AcDbEntity
  8
View002
100
AcDbLine
 10
146.700000000
 20
59.450000000
 30
0.000000000
 11
130.700000000
 21
59.450000000
 31
0.000000000
  0
LINE
  5
A48
330
A02
100
AcDbEntity
  8
View002
100
AcDbLine
 10
130.700000000
 20
59.450000000
 30
0.000000000
 11
130.700000000
 21
68.450000000
 31
0.000000000
  0
LINE
  5
A49
330
A02
100
AcDbEntity
  8
View002
100
AcDbLine
 10
145.500000000
 20
65.700000000
 30
0.000000000
 11
145.500000000
 21
62.200000000
 31
0.000000000
  0
LINE
  5
A4A
330
A02
100
AcDbEntity
  8
View002
100
AcDbLine
 10
144.700000000
 20
62.200000000
 30
0.000000000
 11
144.700000000
 21
65.700000000
 31
0.000000000
  0
LINE
  5
A4B
330
A02
100
AcDbEntity
  8
View002
100
AcDbLine
 10
131.900000000
 20
65.700000000
 30
0.000000000
 11
131.900000000
 21
62.200000000
 31
0.000000000
  0
LINE
  5
A4C
330
A02
100
AcDbEntity
  8
View002
100
AcDbLine
 10
132.700000000
 20
65.700000000
 30
0.000000000
 11
132.700000000
 21
62.200000000
 31
0.000000000
  0
LINE
  5
A4D
330
A02
100
AcDbEntity
  8
View002
100
AcDbLine
 10
128.900000000
 20
60.250000000
 30
0.000000000
 11
128.900000000
 21
67.650000000
 31
0.000000000
  0
LINE
  5
A4E
330
A02
100
AcDbEntity
  8
View002
100
AcDbLine
 10
114.500000000
 20
60.250000000
 30
0.000000000
 11
128.900000000
 21
60.250000000
 31
0.000000000
  0
LINE
  5
A4F
330
A02
100
AcDbEntity
  8
View002
100
AcDbLine
 10
128.900000000
 20
67.650000000
 30
0.000000000
 11
114.500000000
 21
67.650000000
 31
0.000000000
  0
LINE
  5
A50
330
A02
100
AcDbEntity
  8
View002
100
AcDbLine
 10
114.500000000
 20
67.650000000
 30
0.000000000
 11
114.500000000
 21
60.250000000
 31
0.000000000
  0
LINE
  5
A51
330
A02
100
AcDbEntity
  8
View002
100
AcDbLine
 10
128.500000000
 20
62.200000000
 30
0.000000000
 11
127.700000000
 21
62.200000000
 31
0.000000000
  0
LINE
  5
A52
330
A02
100
AcDbEntity
  8
View002
100
AcDbLine
 10
126.700000000
 20
62.200000000
 30
0.000000000
 11
127.700000000
 21
62.200000000
 31
0.000000000
  0
LINE
  5
A53
330
A02
100
AcDbEntity
  8
View002
100
AcDbLine
 10
126.700000000
 20
65.700000000
 30
0.000000000
 11
126.700000000
 21
62.200000000
 31
0.000000000
  0
LINE
  5
A54
330
A02
100
AcDbEntity
  8
View002
100
AcDbLine
 10
127.700000000
 20
65.700000000
 30
0.000000000
 11
126.700000000
 21
65.700000000
 31
0.000000000
  0
LINE
  5
A55
330
A02
100
AcDbEntity
  8
View002
100
AcDbLine
 10
128.500000000
 20
65.700000000
 30
0.000000000
 11
127.700000000
 21
65.700000000
 31
0.000000000
  0
LINE
  5
A56
330
A02
100
AcDbEntity
  8
View002
100
AcDbLine
 10
114.900000000
 20
65.700000000
 30
0.000000000
 11
115.700000000
 21
65.700000000
 31
0.000000000
  0
LINE
  5
A57
330
A02
100
AcDbEntity
  8
View002
100
AcDbLine
 10
116.700000000
 20
65.700000000
 30
0.000000000
 11
115.700000000
 21
65.700000000
 31
0.000000000
  0
LINE
  5
A58
330
A02
100
AcDbEntity
  8
View002
100
AcDbLine
 10
115.700000000
 20
62.200000000
 30
0.000000000
 11
116.700000000
 21
62.200000000
 31
0.000000000
  0
LINE
  5
A59
330
A02
100
AcDbEntity
  8
View002
100
AcDbLine
 10
114.900000000
 20
62.200000000
 30
0.000000000
 11
115.700000000
 21
62.200000000
 31
0.000000000
  0
LINE
  5
A5A
330
A02
100
AcDbEntity
  8
View002
100
AcDbLine
 10
116.700000000
 20
62.200000000
 30
0.000000000
 11
116.700000000
 21
65.700000000
 31
0.000000000
  0
CIRCLE
  5
A5B
330
A02
100
AcDbEntity
  8
View002
100
AcDbCircle
 10
121.700000000
 20
63.950000000
 30
0.000000000
 40
1.000000000
  0
LINE
  5
A5C
330
A02
100
AcDbEntity
  8
View002
100
AcDbLine
 10
129.700000000
 20
68.450000000
 30
0.000000000
 11
129.700000000
 21
59.450000000
 31
0.000000000
  0
LINE
  5
A5D
330
A02
100
AcDbEntity
  8
View002
100
AcDbLine
 10
113.700000000
 20
68.450000000
 30
0.000000000
 11
129.700000000
 21
68.450000000
 31
0.000000000
  0
LINE
  5
A5E
330
A02
100
AcDbEntity
  8
View002
100
AcDbLine
 10
129.700000000
 20
59.450000000
 30
0.000000000
 11
113.700000000
 21
59.450000000
 31
0.000000000
  0
LINE
  5
A5F
330
A02
100
AcDbEntity
  8
View002
100
AcDbLine
 10
113.700000000
 20
59.450000000
 30
0.000000000
 11
113.700000000
 21
68.450000000
 31
0.000000000
  0
LINE
  5
A60
330
A02
100
AcDbEntity
  8
View002
100
AcDbLine
 10
128.500000000
 20
65.700000000
 30
0.000000000
 11
128.500000000
 21
62.200000000
 31
0.000000000
  0
LINE
  5
A61
330
A02
100
AcDbEntity
  8
View002
100
AcDbLine
 10
127.700000000
 20
62.200000000
 30
0.000000000
 11
127.700000000
 21
65.700000000
 31
0.000000000
  0
LINE
  5
A62
330
A02
100
AcDbEntity
  8
View002
100
AcDbLine
 10
114.900000000
 20
65.700000000
 30
0.000000000
 11
114.900000000
 21
62.200000000
 31
0.000000000
  0
LINE
  5
A63
330
A02
100
AcDbEntity
  8
View002
100
AcDbLine
 10
115.700000000
 20
65.700000000
 30
0.000000000
 11
115.700000000
 21
62.200000000
 31
0.000000000
  0
LINE
  5
A64
330
A02
100
AcDbEntity
  8
View002
100
AcDbLine
 10
111.900000000
 20
60.250000000
 30
0.000000000
 11
111.900000000
 21
67.650000000
 31
0.000000000
  0
LINE
  5
A65
330
A02
100
AcDbEntity
  8
View002
100
AcDbLine
 10
97.500000000
 20
60.250000000
 30
0.000000000
 11
111.900000000
 21
60.250000000
 31
0.000000000
  0
LINE
  5
A66
330
A02
100
AcDbEntity
  8
View002
100
AcDbLine
 10
111.900000000
 20
67.650000000
 30
0.000000000
 11
97.500000000
 21
67.650000000
 31
0.000000000
  0
LINE
  5
A67
330
A02
100
AcDbEntity
  8
View002
100
AcDbLine
 10
97.500000000
 20
67.650000000
 30
0.000000000
 11
97.500000000
 21
60.250000000
 31
0.000000000
  0
LINE
  5
A68
330
A02
100
AcDbEntity
  8
View002
100
AcDbLine
 10
111.500000000
 20
62.200000000
 30
0.000000000
 11
110.700000000
 21
62.200000000
 31
0.000000000
  0
LINE
  5
A69
330
A02
100
AcDbEntity
  8
View002
100
AcDbLine
 10
109.700000000
 20
62.200000000
 30
0.000000000
 11
110.700000000
 21
62.200000000
 31
0.000000000
  0
LINE
  5
A6A
330
A02
100
AcDbEntity
  8
View002
100
AcDbLine
 10
109.700000000
 20
65.700000000
 30
0.000000000
 11
109.700000000
 21
62.200000000
 31
0.000000000
  0
LINE
  5
A6B
330
A02
100
AcDbEntity
  8
View002
100
AcDbLine
 10
110.700000000
 20
65.700000000
 30
0.000000000
 11
109.700000000
 21
65.700000000
 31
0.000000000
  0
LINE
  5
A6C
330
A02
100
AcDbEntity
  8
View002
100
AcDbLine
 10
111.500000000
 20
65.700000000
 30
0.000000000
 11
110.700000000
 21
65.700000000
 31
0.000000000
  0
LINE
  5
A6D
330
A02
100
AcDbEntity
  8
View002
100
AcDbLine
 10
97.900000000
 20
65.700000000
 30
0.000000000
 11
98.700000000
 21
65.700000000
 31
0.000000000
  0
LINE
  5
A6E
330
A02
100
AcDbEntity
  8
View002
100
AcDbLine
 10
99.700000000
 20
65.700000000
 30
0.000000000
 11
98.700000000
 21
65.700000000
 31
0.000000000
  0
LINE
  5
A6F
330
A02
100
AcDbEntity
  8
View002
100
AcDbLine
 10
98.700000000
 20
62.200000000
 30
0.000000000
 11
99.700000000
 21
62.200000000
 31
0.000000000
  0
LINE
  5
A70
330
A02
100
AcDbEntity
  8
View002
100
AcDbLine
 10
97.900000000
 20
62.200000000
 30
0.000000000
 11
98.700000000
 21
62.200000000
 31
0.000000000
  0
LINE
  5
A71
330
A02
100
AcDbEntity
  8
View002
100
AcDbLine
 10
99.700000000
 20
62.200000000
 30
0.000000000
 11
99.700000000
 21
65.700000000
 31
0.000000000
  0
CIRCLE
  5
A72
330
A02
100
AcDbEntity
  8
View002
100
AcDbCircle
 10
104.700000000
 20
63.950000000
 30
0.000000000
 40
1.000000000
  0
LINE
  5
A73
330
A02
100
AcDbEntity
  8
View002
100
AcDbLine
 10
112.700000000
 20
68.450000000
 30
0.000000000
 11
112.700000000
 21
59.450000000
 31
0.000000000
  0
LINE
  5
A74
330
A02
100
AcDbEntity
  8
View002
100
AcDbLine
 10
96.700000000
 20
68.450000000
 30
0.000000000
 11
112.700000000
 21
68.450000000
 31
0.000000000
  0
LINE
  5
A75
330
A02
100
AcDbEntity
  8
View002
100
AcDbLine
 10
112.700000000
 20
59.450000000
 30
0.000000000
 11
96.700000000
 21
59.450000000
 31
0.000000000
  0
LINE
  5
A76
330
A02
100
AcDbEntity
  8
View002
100
AcDbLine
 10
96.700000000
 20
59.450000000
 30
0.000000000
 11
96.700000000
 21
68.450000000
 31
0.000000000
  0
LINE
  5
A77
330
A02
100
AcDbEntity
  8
View002
100
AcDbLine
 10
111.500000000
 20
65.700000000
 30
0.000000000
 11
111.500000000
 21
62.200000000
 31
0.000000000
  0
LINE
  5
A78
330
A02
100
AcDbEntity
  8
View002
100
AcDbLine
 10
110.700000000
 20
62.200000000
 30
0.000000000
 11
110.700000000
 21
65.700000000
 31
0.000000000
  0
LINE
  5
A79
330
A02
100
AcDbEntity
  8
View002
100
AcDbLine
 10
97.900000000
 20
65.700000000
 30
0.000000000
 11
97.900000000
 21
62.200000000
 31
0.000000000
  0
LINE
  5
A7A
330
A02
100
AcDbEntity
  8
View002
100
AcDbLine
 10
98.700000000
 20
65.700000000
 30
0.000000000
 11
98.700000000
 21
62.200000000
 31
0.000000000
  0
LINE
  5
A7B
330
A02
100
AcDbEntity
  8
View002
100
AcDbLine
 10
94.900000000
 20
60.250000000
 30
0.000000000
 11
94.900000000
 21
67.650000000
 31
0.000000000
  0
LINE
  5
A7C
330
A02
100
AcDbEntity
  8
View002
100
AcDbLine
 10
80.500000000
 20
60.250000000
 30
0.000000000
 11
94.900000000
 21
60.250000000
 31
0.000000000
  0
LINE
  5
A7D
330
A02
100
AcDbEntity
  8
View002
100
AcDbLine
 10
94.900000000
 20
67.650000000
 30
0.000000000
 11
80.500000000
 21
67.650000000
 31
0.000000000
  0
LINE
  5
A7E
330
A02
100
AcDbEntity
  8
View002
100
AcDbLine
 10
80.500000000
 20
67.650000000
 30
0.000000000
 11
80.500000000
 21
60.250000000
 31
0.000000000
  0
LINE
  5
A7F
330
A02
100
AcDbEntity
  8
View002
100
AcDbLine
 10
94.500000000
 20
62.200000000
 30
0.000000000
 11
93.700000000
 21
62.200000000
 31
0.000000000
  0
LINE
  5
A80
330
A02
100
AcDbEntity
  8
View002
100
AcDbLine
 10
92.700000000
 20
62.200000000
 30
0.000000000
 11
93.700000000
 21
62.200000000
 31
0.000000000
  0
LINE
  5
A81
330
A02
100
AcDbEntity
  8
View002
100
AcDbLine
 10
92.700000000
 20
65.700000000
 30
0.000000000
 11
92.700000000
 21
62.200000000
 31
0.000000000
  0
LINE
  5
A82
330
A02
100
AcDbEntity
  8
View002
100
AcDbLine
 10
93.700000000
 20
65.700000000
 30
0.000000000
 11
92.700000000
 21
65.700000000
 31
0.000000000
  0
LINE
  5
A83
330
A02
100
AcDbEntity
  8
View002
100
AcDbLine
 10
94.500000000
 20
65.700000000
 30
0.000000000
 11
93.700000000
 21
65.700000000
 31
0.000000000
  0
LINE
  5
A84
330
A02
100
AcDbEntity
  8
View002
100
AcDbLine
 10
80.900000000
 20
65.700000000
 30
0.000000000
 11
81.700000000
 21
65.700000000
 31
0.000000000
  0
LINE
  5
A85
330
A02
100
AcDbEntity
  8
View002
100
AcDbLine
 10
82.700000000
 20
65.700000000
 30
0.000000000
 11
81.700000000
 21
65.700000000
 31
0.000000000
  0
LINE
  5
A86
330
A02
100
AcDbEntity
  8
View002
100
AcDbLine
 10
81.700000000
 20
62.200000000
 30
0.000000000
 11
82.700000000
 21
62.200000000
 31
0.000000000
  0
LINE
  5
A87
330
A02
100
AcDbEntity
  8
View002
100
AcDbLine
 10
80.900000000
 20
62.200000000
 30
0.000000000
 11
81.700000000
 21
62.200000000
 31
0.000000000
  0
LINE
  5
A88
330
A02
100
AcDbEntity
  8
View002
100
AcDbLine
 10
82.700000000
 20
62.200000000
 30
0.000000000
 11
82.700000000
 21
65.700000000
 31
0.000000000
  0
CIRCLE
  5
A89
330
A02
100
AcDbEntity
  8
View002
100
AcDbCircle
 10
87.700000000
 20
63.950000000
 30
0.000000000
 40
1.000000000
  0
LINE
  5
A8A
330
A02
100
AcDbEntity
  8
View002
100
AcDbLine
 10
95.700000000
 20
68.450000000
 30
0.000000000
 11
95.700000000
 21
59.450000000
 31
0.000000000
  0
LINE
  5
A8B
330
A02
100
AcDbEntity
  8
View002
100
AcDbLine
 10
79.700000000
 20
68.450000000
 30
0.000000000
 11
95.700000000
 21
68.450000000
 31
0.000000000
  0
LINE
  5
A8C
330
A02
100
AcDbEntity
  8
View002
100
AcDbLine
 10
95.700000000
 20
59.450000000
 30
0.000000000
 11
79.700000000
 21
59.450000000
 31
0.000000000
  0
LINE
  5
A8D
330
A02
100
AcDbEntity
  8
View002
100
AcDbLine
 10
79.700000000
 20
59.450000000
 30
0.000000000
 11
79.700000000
 21
68.450000000
 31
0.000000000
  0
LINE
  5
A8E
330
A02
100
AcDbEntity
  8
View002
100
AcDbLine
 10
94.500000000
 20
65.700000000
 30
0.000000000
 11
94.500000000
 21
62.200000000
 31
0.000000000
  0
LINE
  5
A8F
330
A02
100
AcDbEntity
  8
View002
100
AcDbLine
 10
93.700000000
 20
62.200000000
 30
0.000000000
 11
93.700000000
 21
65.700000000
 31
0.000000000
  0
LINE
  5
A90
330
A02
100
AcDbEntity
  8
View002
100
AcDbLine
 10
80.900000000
 20
65.700000000
 30
0.000000000
 11
80.900000000
 21
62.200000000
 31
0.000000000
  0
LINE
  5
A91
330
A02
100
AcDbEntity
  8
View002
100
AcDbLine
 10
81.700000000
 20
65.700000000
 30
0.000000000
 11
81.700000000
 21
62.200000000
 31
0.000000000
  0
LINE
  5
A92
330
A02
100
AcDbEntity
  8
View002
100
AcDbLine
 10
226.700000000
 20
79.950000000
 30
0.000000000
 11
226.700000000
 21
59.950000000
 31
0.000000000
  0
LINE
  5
A93
330
A02
100
AcDbEntity
  8
View002
100
AcDbLine
 10
226.700000000
 20
79.950000000
 30
0.000000000
 11
228.700000000
 21
79.950000000
 31
0.000000000
  0
LINE
  5
A94
330
A02
100
AcDbEntity
  8
View002
100
AcDbLine
 10
226.700000000
 20
79.950000000
 30
0.000000000
 11
224.200000000
 21
79.950000000
 31
0.000000000
  0
LINE
  5
A95
330
A02
100
AcDbEntity
  8
View002
100
AcDbLine
 10
227.700000000
 20
158.950000000
 30
0.000000000
 11
51.700000000
 21
158.950000000
 31
0.000000000
  0
ARC
  5
A96
330
A02
100
AcDbEntity
  8
View002
100
AcDbCircle
 10
51.700000000
 20
157.950000000
 30
0.000000000
 40
1.000000000
100
AcDbArc
 50
90.000000000
 51
180.000000000
  0
LINE
  5
A97
330
A02
100
AcDbEntity
  8
View002
100
AcDbLine
 10
50.700000000
 20
157.950000000
 30
0.000000000
 11
50.700000000
 21
57.950000000
 31
0.000000000
  0
ARC
  5
A98
330
A02
100
AcDbEntity
  8
View002
100
AcDbCircle
 10
51.700000000
 20
57.950000000
 30
0.000000000
 40
1.000000000
100
AcDbArc
 50
180.000000000
 51
-90.000000000
  0
LINE
  5
A99
330
A02
100
AcDbEntity
  8
View002
100
AcDbLine
 10
227.700000000
 20
56.950000000
 30
0.000000000
 11
51.700000000
 21
56.950000000
 31
0.000000000
  0
ARC
  5
A9A
330
A02
100
AcDbEntity
  8
View002
100
AcDbCircle
 10
227.700000000
 20
57.950000000
 30
0.000000000
 40
1.000000000
100
AcDbArc
 50
-90.000000000
 51
0.000000000
  0
LINE
  5
A9B
330
A02
100
AcDbEntity
  8
View002
100
AcDbLine
 10
228.700000000
 20
79.950000000
 30
0.000000000
 11
228.700000000
 21
57.950000000
 31
0.000000000
  0
ARC
  5
A9C
330
A02
100
AcDbEntity
  8
View002
100
AcDbCircle
 10
225.700000000
 20
59.950000000
 30
0.000000000
 40
1.000000000
100
AcDbArc
 50
-90.000000000
 51
0.000000000
  0
LINE
  5
A9D
330
A02
100
AcDbEntity
  8
View002
100
AcDbLine
 10
225.700000000
 20
58.950000000
 30
0.000000000
 11
53.700000000
 21
58.950000000
 31
0.000000000
  0
ARC
  5
A9E
330
A02
100
AcDbEntity
  8
View002
100
AcDbCircle
 10
53.700000000
 20
59.950000000
 30
0.000000000
 40
1.000000000
100
AcDbArc
 50
180.000000000
 51
-90.000000000
  0
LINE
  5
A9F
330
A02
100
AcDbEntity
  8
View002
100
AcDbLine
 10
52.700000000
 20
59.950000000
 30
0.000000000
 11
52.700000000
 21
155.950000000
 31
0.000000000
  0
ARC
  5
AA0
330
A02
100
AcDbEntity
  8
View002
100
AcDbCircle
 10
53.700000000
 20
155.950000000
 30
0.000000000
 40
1.000000000
100
AcDbArc
 50
90.000000000
 51
180.000000000
  0
LINE
  5
AA1
330
A02
100
AcDbEntity
  8
View002
100
AcDbLine
 10
53.700000000
 20
156.950000000
 30
0.000000000
 11
225.700000000
 21
156.950000000
 31
0.000000000
  0
ARC
  5
AA2
330
A02
100
AcDbEntity
  8
View002
100
AcDbCircle
 10
225.700000000
 20
155.950000000
 30
0.000000000
 40
1.000000000
100
AcDbArc
 50
0.000000000
 51
90.000000000
  0
LINE
  5
AA3
330
A02
100
AcDbEntity
  8
View002
100
AcDbLine
 10
226.700000000
 20
155.950000000
 30
0.000000000
 11
226.700000000
 21
131.950000000
 31
0.000000000
  0
LINE
  5
AA4
330
A02
100
AcDbEntity
  8
View002
100
AcDbLine
 10
228.700000000
 20
157.950000000
 30
0.000000000
 11
228.700000000
 21
131.950000000
 31
0.000000000
  0
ARC
  5
AA5
330
A02
100
AcDbEntity
  8
View002
100
AcDbCircle
 10
227.700000000
 20
157.950000000
 30
0.000000000
 40
1.000000000
100
AcDbArc
 50
0.000000000
 51
90.000000000
  0
ARC
  5
AA6
330
A02
100
AcDbEntity
  8
View002
100
AcDbCircle
 10
225.699999836
 20
59.950000164
 30
0.000000000
 40
1.000000164
100
AcDbArc
 50
-89.999990593
 51
-0.000009404
  0
LINE
  5
AA7
330
A02
100
AcDbEntity
  8
View002
100
AcDbLine
 10
181.200000000
 20
59.150000000
 30
0.000000000
 11
181.200000000
 21
58.950000000
 31
0.000000000
  0
LINE
  5
AA8
330
A02
100
AcDbEntity
  8
View002
100
AcDbLine
 10
225.200000000
 20
59.150000000
 30
0.000000000
 11
181.200000000
 21
59.150000000
 31
0.000000000
  0
LINE
  5
AA9
330
A02
100
AcDbEntity
  8
View002
100
AcDbLine
 10
225.200000000
 20
75.150000000
 30
0.000000000
 11
225.200000000
 21
59.150000000
 31
0.000000000
  0
LINE
  5
AAA
330
A02
100
AcDbEntity
  8
View002
100
AcDbLine
 10
217.300000000
 20
75.150000000
 30
0.000000000
 11
225.200000000
 21
75.150000000
 31
0.000000000
  0
LINE
  5
AAB
330
A02
100
AcDbEntity
  8
View002
100
AcDbLine
 10
217.300000000
 20
75.150000000
 30
0.000000000
 11
217.300000000
 21
77.510000000
 31
0.000000000
  0
LINE
  5
AAC
330
A02
100
AcDbEntity
  8
View002
100
AcDbLine
 10
225.460000000
 20
77.510000000
 30
0.000000000
 11
217.300000000
 21
77.510000000
 31
0.000000000
  0
LINE
  5
AAD
330
A02
100
AcDbEntity
  8
View002
100
AcDbLine
 10
225.460000000
 20
79.950000000
 30
0.000000000
 11
225.460000000
 21
77.510000000
 31
0.000000000
  0
LINE
  5
AAE
330
A02
100
AcDbEntity
  8
View002
100
AcDbLine
 10
217.300000000
 20
95.510000000
 30
0.000000000
 11
224.200000000
 21
95.510000000
 31
0.000000000
  0
LINE
  5
AAF
330
A02
100
AcDbEntity
  8
View002
100
AcDbLine
 10
217.300000000
 20
95.510000000
 30
0.000000000
 11
217.300000000
 21
100.006000000
 31
0.000000000
  0
LINE
  5
AB0
330
A02
100
AcDbEntity
  8
View002
100
AcDbLine
 10
224.200000000
 20
100.006000000
 30
0.000000000
 11
217.300000000
 21
100.006000000
 31
0.000000000
  0
ARC
  5
AB1
330
A02
100
AcDbEntity
  8
View002
100
AcDbCircle
 10
220.899990653
 20
97.758000000
 30
0.000000000
 40
1.100000000
100
AcDbArc
 50
90.000000000
 51
-90.000000000
  0
LINE
  5
AB2
330
A02
100
AcDbEntity
  8
View002
100
AcDbLine
 10
224.199990653
 20
98.858000000
 30
0.000000000
 11
220.899990653
 21
98.858000000
 31
0.000000000
  0
LINE
  5
AB3
330
A02
100
AcDbEntity
  8
View002
100
AcDbLine
 10
220.899990653
 20
96.658000000
 30
0.000000000
 11
224.199990653
 21
96.658000000
 31
0.000000000
  0
ARC
  5
AB4
330
A02
100
AcDbEntity
  8
View002
100
AcDbCircle
 10
224.199990653
 20
97.758000000
 30
0.000000000
 40
1.100000000
100
AcDbArc
 50
-90.000000000
 51
-89.999513167
  0
ARC
  5
AB5
330
A02
100
AcDbEntity
  8
View002
100
AcDbCircle
 10
224.199990653
 20
97.758000000
 30
0.000000000
 40
1.100000000
100
AcDbArc
 50
89.999513167
 51
90.000000000
  0
LINE
  5
AB6
330
A02
100
AcDbEntity
  8
View002
100
AcDbLine
 10
225.460000000
 20
140.006000000
 30
0.000000000
 11
225.460000000
 21
131.950000000
 31
0.000000000
  0
LINE
  5
AB7
330
A02
100
AcDbEntity
  8
View002
100
AcDbLine
 10
226.700000000
 20
131.950000000
 30
0.000000000
 11
224.200000000
 21
131.950000000
 31
0.000000000
  0
LINE
  5
AB8
330
A02
100
AcDbEntity
  8
View002
100
AcDbLine
 10
228.700000000
 20
131.950000000
 30
0.000000000
 11
226.700000000
 21
131.950000000
 31
0.000000000
  0
LINE
  5
AB9
330
A02
100
AcDbEntity
  8
View002
100
AcDbLine
 10
224.200000000
 20
79.950000000
 30
0.000000000
 11
224.200000000
 21
131.950000000
 31
0.000000000
  0
LINE
  5
ABA
330
A02
100
AcDbEntity
  8
View002
100
AcDbLine
 10
228.700000000
 20
79.950000000
 30
0.000000000
 11
228.700000000
 21
131.950000000
 31
0.000000000
  0
ARC
  5
ABB
330
A02
100
AcDbEntity
  8
View002
100
AcDbCircle
 10
53.700005168
 20
155.949994832
 30
0.000000000
 40
1.000005168
100
AcDbArc
 50
90.000296081
 51
179.999703919
  0
ARC
  5
ABC
330
A02
100
AcDbEntity
  8
View002
100
AcDbCircle
 10
225.699990653
 20
155.949990653
 30
0.000000000
 40
1.000009347
100
AcDbArc
 50
0.000535516
 51
89.999464484
  0
LINE
  5
ABD
330
A02
100
AcDbEntity
  8
View002
100
AcDbLine
 10
181.200000000
 20
65.950000000
 30
0.000000000
 11
181.200000000
 21
59.150000000
 31
0.000000000
  0
LINE
  5
ABE
330
A02
100
AcDbEntity
  8
View002
100
AcDbLine
 10
181.200000000
 20
66.850000000
 30
0.000000000
 11
181.200000000
 21
65.950000000
 31
0.000000000
  0
LINE
  5
ABF
330
A02
100
AcDbEntity
  8
View002
100
AcDbLine
 10
181.200000000
 20
68.950000000
 30
0.000000000
 11
181.200000000
 21
66.850000000
 31
0.000000000
  0
LINE
  5
AC0
330
A02
100
AcDbEntity
  8
View002
100
AcDbLine
 10
204.700000000
 20
75.150000000
 30
0.000000000
 11
217.300000000
 21
75.150000000
 31
0.000000000
  0
LINE
  5
AC1
330
A02
100
AcDbEntity
  8
View002
100
AcDbLine
 10
217.300000000
 20
77.510000000
 30
0.000000000
 11
208.460000000
 21
77.510000000
 31
0.000000000
  0
LINE
  5
AC2
330
A02
100
AcDbEntity
  8
View002
100
AcDbLine
 10
208.460000000
 20
95.510000000
 30
0.000000000
 11
217.300000000
 21
95.510000000
 31
0.000000000
  0
LINE
  5
AC3
330
A02
100
AcDbEntity
  8
View002
100
AcDbLine
 10
217.300000000
 20
100.006000000
 30
0.000000000
 11
208.460000000
 21
100.006000000
 31
0.000000000
  0
LINE
  5
AC4
330
A02
100
AcDbEntity
  8
View002
100
AcDbLine
 10
52.700000000
 20
76.750000000
 30
0.000000000
 11
61.200000000
 21
76.750000000
 31
0.000000000
  0
LINE
  5
AC5
330
A02
100
AcDbEntity
  8
View002
100
AcDbLine
 10
61.200000000
 20
89.006000000
 30
0.000000000
 11
61.200000000
 21
76.750000000
 31
0.000000000
  0
LINE
  5
AC6
330
A02
100
AcDbEntity
  8
View002
100
AcDbLine
 10
61.200000000
 20
89.006000000
 30
0.000000000
 11
53.940000000
 21
89.006000000
 31
0.000000000
  0
LINE
  5
AC7
330
A02
100
AcDbEntity
  8
View002
100
AcDbLine
 10
53.940000000
 20
89.006000000
 30
0.000000000
 11
53.940000000
 21
129.006000000
 31
0.000000000
  0
LINE
  5
AC8
330
A02
100
AcDbEntity
  8
View002
100
AcDbLine
 10
53.940000000
 20
129.006000000
 30
0.000000000
 11
61.200000000
 21
129.006000000
 31
0.000000000
  0
LINE
  5
AC9
330
A02
100
AcDbEntity
  8
View002
100
AcDbLine
 10
61.200000000
 20
139.506000000
 30
0.000000000
 11
61.200000000
 21
129.006000000
 31
0.000000000
  0
LINE
  5
ACA
330
A02
100
AcDbEntity
  8
View002
100
AcDbLine
 10
61.200000000
 20
139.506000000
 30
0.000000000
 11
53.940000000
 21
139.506000000
 31
0.000000000
  0
LINE
  5
ACB
330
A02
100
AcDbEntity
  8
View002
100
AcDbLine
 10
53.940000000
 20
139.506000000
 30
0.000000000
 11
53.940000000
 21
149.506000000
 31
0.000000000
  0
LINE
  5
ACC
330
A02
100
AcDbEntity
  8
View002
100
AcDbLine
 10
53.940000000
 20
149.506000000
 30
0.000000000
 11
61.200000000
 21
149.506000000
 31
0.000000000
  0
LINE
  5
ACD
330
A02
100
AcDbEntity
  8
View002
100
AcDbLine
 10
61.200000000
 20
155.650000000
 30
0.000000000
 11
61.200000000
 21
149.506000000
 31
0.000000000
  0
LINE
  5
ACE
330
A02
100
AcDbEntity
  8
View002
100
AcDbLine
 10
61.200000000
 20
155.650000000
 30
0.000000000
 11
217.300000000
 21
155.650000000
 31
0.000000000
  0
LINE
  5
ACF
330
A02
100
AcDbEntity
  8
View002
100
AcDbLine
 10
217.300000000
 20
152.506000000
 30
0.000000000
 11
217.300000000
 21
155.650000000
 31
0.000000000
  0
LINE
  5
AD0
330
A02
100
AcDbEntity
  8
View002
100
AcDbLine
 10
217.300000000
 20
152.506000000
 30
0.000000000
 11
225.460000000
 21
152.506000000
 31
0.000000000
  0
LINE
  5
AD1
330
A02
100
AcDbEntity
  8
View002
100
AcDbLine
 10
225.460000000
 20
152.506000000
 30
0.000000000
 11
225.460000000
 21
142.506000000
 31
0.000000000
  0
LINE
  5
AD2
330
A02
100
AcDbEntity
  8
View002
100
AcDbLine
 10
225.460000000
 20
142.506000000
 30
0.000000000
 11
217.300000000
 21
142.506000000
 31
0.000000000
  0
LINE
  5
AD3
330
A02
100
AcDbEntity
  8
View002
100
AcDbLine
 10
217.300000000
 20
140.006000000
 30
0.000000000
 11
217.300000000
 21
142.506000000
 31
0.000000000
  0
LINE
  5
AD4
330
A02
100
AcDbEntity
  8
View002
100
AcDbLine
 10
217.300000000
 20
140.006000000
 30
0.000000000
 11
225.460000000
 21
140.006000000
 31
0.000000000
  0
CIRCLE
  5
AD5
330
A02
100
AcDbEntity
  8
View002
100
AcDbCircle
 10
56.950000000
 20
82.878000000
 30
0.000000000
 40
3.350000000
  0
CIRCLE
  5
AD6
330
A02
100
AcDbEntity
  8
View002
100
AcDbCircle
 10
56.950000000
 20
153.078000000
 30
0.000000000
 40
3.350000000
  0
LINE
  5
AD7
330
A02
100
AcDbEntity
  8
View002
100
AcDbLine
 10
55.450000000
 20
132.656000000
 30
0.000000000
 11
58.450000000
 21
132.656000000
 31
0.000000000
  0
ARC
  5
AD8
330
A02
100
AcDbEntity
  8
View002
100
AcDbCircle
 10
55.450000000
 20
134.256000000
 30
0.000000000
 40
1.600000000
100
AcDbArc
 50
90.000000000
 51
-90.000000000
  0
LINE
  5
AD9
330
A02
100
AcDbEntity
  8
View002
100
AcDbLine
 10
58.450000000
 20
135.856000000
 30
0.000000000
 11
55.450000000
 21
135.856000000
 31
0.000000000
  0
ARC
  5
ADA
330
A02
100
AcDbEntity
  8
View002
100
AcDbCircle
 10
58.450000000
 20
134.256000000
 30
0.000000000
 40
1.600000000
100
AcDbArc
 50
-90.000000000
 51
90.000000000
  0
LINE
  5
ADB
330
A02
100
AcDbEntity
  8
View002
100
AcDbLine
 10
220.899990653
 20
153.049990653
 30
0.000000000
 11
224.199990653
 21
153.049990653
 31
0.000000000
  0
ARC
  5
ADC
330
A02
100
AcDbEntity
  8
View002
100
AcDbCircle
 10
220.899990653
 20
154.549990653
 30
0.000000000
 40
1.500000000
100
AcDbArc
 50
90.000000000
 51
-90.000000000
  0
LINE
  5
ADD
330
A02
100
AcDbEntity
  8
View002
100
AcDbLine
 10
224.199990653
 20
156.049990653
 30
0.000000000
 11
220.899990653
 21
156.049990653
 31
0.000000000
  0
ARC
  5
ADE
330
A02
100
AcDbEntity
  8
View002
100
AcDbCircle
 10
224.199990653
 20
154.549990653
 30
0.000000000
 40
1.500000000
100
AcDbArc
 50
-90.000000000
 51
90.000000000
  0
LINE
  5
ADF
330
A02
100
AcDbEntity
  8
View002
100
AcDbLine
 10
208.460000000
 20
140.006000000
 30
0.000000000
 11
217.300000000
 21
140.006000000
 31
0.000000000
  0
LINE
  5
AE0
330
A02
100
AcDbEntity
  8
View002
100
AcDbLine
 10
79.200000000
 20
66.850000000
 30
0.000000000
 11
79.200000000
 21
68.950000000
 31
0.000000000
  0
LINE
  5
AE1
330
A02
100
AcDbEntity
  8
View002
100
AcDbLine
 10
79.200000000
 20
65.950000000
 30
0.000000000
 11
79.200000000
 21
66.850000000
 31
0.000000000
  0
LINE
  5
AE2
330
A02
100
AcDbEntity
  8
View002
100
AcDbLine
 10
79.200000000
 20
59.150000000
 30
0.000000000
 11
79.200000000
 21
65.950000000
 31
0.000000000
  0
LINE
  5
AE3
330
A02
100
AcDbEntity
  8
View002
100
AcDbLine
 10
79.200000000
 20
58.950000000
 30
0.000000000
 11
79.200000000
 21
59.150000000
 31
0.000000000
  0
LINE
  5
AE4
330
A02
100
AcDbEntity
  8
View002
100
AcDbLine
 10
70.200000000
 20
59.150000000
 30
0.000000000
 11
79.200000000
 21
59.150000000
 31
0.000000000
  0
LINE
  5
AE5
330
A02
100
AcDbEntity
  8
View002
100
AcDbLine
 10
70.200000000
 20
59.250000000
 30
0.000000000
 11
70.200000000
 21
59.150000000
 31
0.000000000
  0
LINE
  5
AE6
330
A02
100
AcDbEntity
  8
View002
100
AcDbLine
 10
70.200000000
 20
59.250000000
 30
0.000000000
 11
52.985857157
 21
59.250000000
 31
0.000000000
  0
LINE
  5
AE7
330
A02
100
AcDbEntity
  8
View002
100
AcDbLine
 10
70.200000000
 20
59.250000000
 30
0.000000000
 11
70.500000000
 21
59.250000000
 31
0.000000000
  0
LINE
  5
AE8
330
A02
100
AcDbEntity
  8
View002
100
AcDbLine
 10
61.200000000
 20
76.750000000
 30
0.000000000
 11
70.500000000
 21
76.750000000
 31
0.000000000
  0
LINE
  5
AE9
330
A02
100
AcDbEntity
  8
View002
100
AcDbLine
 10
204.700000000
 20
59.150000000
 30
0.000000000
 11
204.700000000
 21
65.950000000
 31
0.000000000
  0
LINE
  5
AEA
330
A02
100
AcDbEntity
  8
View002
100
AcDbLine
 10
203.100000000
 20
61.150000000
 30
0.000000000
 11
203.100000000
 21
65.950000000
 31
0.000000000
  0
LINE
  5
AEB
330
A02
100
AcDbEntity
  8
View002
100
AcDbLine
 10
183.800000000
 20
61.150000000
 30
0.000000000
 11
203.100000000
 21
61.150000000
 31
0.000000000
  0
LINE
  5
AEC
330
A02
100
AcDbEntity
  8
View002
100
AcDbLine
 10
183.800000000
 20
65.950000000
 30
0.000000000
 11
183.800000000
 21
61.150000000
 31
0.000000000
  0
LINE
  5
AED
330
A02
100
AcDbEntity
  8
View002
100
AcDbLine
 10
204.700000000
 20
65.950000000
 30
0.000000000
 11
181.200000000
 21
65.950000000
 31
0.000000000
  0
LINE
  5
AEE
330
A02
100
AcDbEntity
  8
View002
100
AcDbLine
 10
204.700000000
 20
65.950000000
 30
0.000000000
 11
204.700000000
 21
66.850000000
 31
0.000000000
  0
LINE
  5
AEF
330
A02
100
AcDbEntity
  8
View002
100
AcDbLine
 10
181.200000000
 20
66.850000000
 30
0.000000000
 11
204.700000000
 21
66.850000000
 31
0.000000000
  0
LINE
  5
AF0
330
A02
100
AcDbEntity
  8
View002
100
AcDbLine
 10
79.200000000
 20
68.950000000
 30
0.000000000
 11
181.200000000
 21
68.950000000
 31
0.000000000
  0
LINE
  5
AF1
330
A02
100
AcDbEntity
  8
View002
100
AcDbLine
 10
70.500000000
 20
76.750000000
 30
0.000000000
 11
70.500000000
 21
66.850000000
 31
0.000000000
  0
LINE
  5
AF2
330
A02
100
AcDbEntity
  8
View002
100
AcDbLine
 10
70.940000000
 20
89.006000000
 30
0.000000000
 11
61.200000000
 21
89.006000000
 31
0.000000000
  0
LINE
  5
AF3
330
A02
100
AcDbEntity
  8
View002
100
AcDbLine
 10
70.940000000
 20
89.006000000
 30
0.000000000
 11
70.940000000
 21
75.474000000
 31
0.000000000
  0
LINE
  5
AF4
330
A02
100
AcDbEntity
  8
View002
100
AcDbLine
 10
70.940000000
 20
75.474000000
 30
0.000000000
 11
208.460000000
 21
75.474000000
 31
0.000000000
  0
LINE
  5
AF5
330
A02
100
AcDbEntity
  8
View002
100
AcDbLine
 10
208.460000000
 20
75.474000000
 30
0.000000000
 11
208.460000000
 21
77.510000000
 31
0.000000000
  0
LINE
  5
AF6
330
A02
100
AcDbEntity
  8
View002
100
AcDbLine
 10
204.700000000
 20
66.850000000
 30
0.000000000
 11
204.700000000
 21
75.150000000
 31
0.000000000
  0
CIRCLE
  5
AF7
330
A02
100
AcDbEntity
  8
View002
100
AcDbCircle
 10
214.950000000
 20
67.150000000
 30
0.000000000
 40
5.000000000
  0
LINE
  5
AF8
330
A02
100
AcDbEntity
  8
View002
100
AcDbLine
 10
208.460000000
 20
95.510000000
 30
0.000000000
 11
208.460000000
 21
100.006000000
 31
0.000000000
  0
ARC
  5
AF9
330
A02
100
AcDbEntity
  8
View002
100
AcDbCircle
 10
220.899990653
 20
97.758000000
 30
0.000000000
 40
0.500000000
100
AcDbArc
 50
90.000000000
 51
-90.000000000
  0
LINE
  5
AFA
330
A02
100
AcDbEntity
  8
View002
100
AcDbLine
 10
224.199990653
 20
98.258000000
 30
0.000000000
 11
220.899990653
 21
98.258000000
 31
0.000000000
  0
LINE
  5
AFB
330
A02
100
AcDbEntity
  8
View002
100
AcDbLine
 10
220.899990653
 20
97.258000000
 30
0.000000000
 11
224.199990653
 21
97.258000000
 31
0.000000000
  0
ARC
  5
AFC
330
A02
100
AcDbEntity
  8
View002
100
AcDbCircle
 10
224.199990653
 20
97.758000000
 30
0.000000000
 40
0.500000000
100
AcDbArc
 50
-90.000000000
 51
-89.998928968
  0
ARC
  5
AFD
330
A02
100
AcDbEntity
  8
View002
100
AcDbCircle
 10
224.199990653
 20
97.758000000
 30
0.000000000
 40
0.500000000
100
AcDbArc
 50
89.998928968
 51
90.000000000
  0
LINE
  5
AFE
330
A02
100
AcDbEntity
  8
View002
100
AcDbLine
 10
70.500000000
 20
59.250000000
 30
0.000000000
 11
70.500000000
 21
66.850000000
 31
0.000000000
  0
LINE
  5
AFF
330
A02
100
AcDbEntity
  8
View002
100
AcDbLine
 10
61.200000000
 20
129.006000000
 30
0.000000000
 11
70.940000000
 21
129.006000000
 31
0.000000000
  0
LINE
  5
B00
330
A02
100
AcDbEntity
  8
View002
100
AcDbLine
 10
70.940000000
 20
139.506000000
 30
0.000000000
 11
70.940000000
 21
129.006000000
 31
0.000000000
  0
LINE
  5
B01
330
A02
100
AcDbEntity
  8
View002
100
AcDbLine
 10
70.940000000
 20
139.506000000
 30
0.000000000
 11
61.200000000
 21
139.506000000
 31
0.000000000
  0
LINE
  5
B02
330
A02
100
AcDbEntity
  8
View002
100
AcDbLine
 10
61.200000000
 20
149.506000000
 30
0.000000000
 11
70.940000000
 21
149.506000000
 31
0.000000000
  0
LINE
  5
B03
330
A02
100
AcDbEntity
  8
View002
100
AcDbLine
 10
70.940000000
 20
153.506000000
 30
0.000000000
 11
70.940000000
 21
149.506000000
 31
0.000000000
  0
LINE
  5
B04
330
A02
100
AcDbEntity
  8
View002
100
AcDbLine
 10
208.460000000
 20
153.506000000
 30
0.000000000
 11
70.940000000
 21
153.506000000
 31
0.000000000
  0
LINE
  5
B05
330
A02
100
AcDbEntity
  8
View002
100
AcDbLine
 10
208.460000000
 20
152.506000000
 30
0.000000000
 11
208.460000000
 21
153.506000000
 31
0.000000000
  0
LINE
  5
B06
330
A02
100
AcDbEntity
  8
View002
100
AcDbLine
 10
208.460000000
 20
152.506000000
 30
0.000000000
 11
217.300000000
 21
152.506000000
 31
0.000000000
  0
LINE
  5
B07
330
A02
100
AcDbEntity
  8
View002
100
AcDbLine
 10
217.300000000
 20
142.506000000
 30
0.000000000
 11
208.460000000
 21
142.506000000
 31
0.000000000
  0
LINE
  5
B08
330
A02
100
AcDbEntity
  8
View002
100
AcDbLine
 10
208.460000000
 20
140.006000000
 30
0.000000000
 11
208.460000000
 21
142.506000000
 31
0.000000000
  0
LINE
  5
B09
330
A02
100
AcDbEntity
  8
View002
100
AcDbLine
 10
70.500000000
 20
66.850000000
 30
0.000000000
 11
79.200000000
 21
66.850000000
 31
0.000000000
  0
LINE
  5
B0A
330
A02
100
AcDbEntity
  8
View002
100
AcDbLine
 10
71.400000000
 20
65.950000000
 30
0.000000000
 11
70.500000000
 21
66.850000000
 31
0.000000000
  0
LINE
  5
B0B
330
A02
100
AcDbEntity
  8
View002
100
AcDbLine
 10
79.200000000
 20
65.950000000
 30
0.000000000
 11
71.400000000
 21
65.950000000
 31
0.000000000
  0
CIRCLE
  5
B0C
330
A02
100
AcDbEntity
  8
View002
100
AcDbCircle
 10
56.950000000
 20
82.878000000
 30
0.000000000
 40
2.750000000
  0
CIRCLE
  5
B0D
330
A02
100
AcDbEntity
  8
View002
100
AcDbCircle
 10
56.950000000
 20
153.078000000
 30
0.000000000
 40
2.750000000
  0
LINE
  5
B0E
330
A02
100
AcDbEntity
  8
View002
100
AcDbLine
 10
55.450000000
 20
133.256000000
 30
0.000000000
 11
58.450000000
 21
133.256000000
 31
0.000000000
  0
ARC
  5
B0F
330
A02
100
AcDbEntity
  8
View002
100
AcDbCircle
 10
55.450000000
 20
134.256000000
 30
0.000000000
 40
1.000000000
100
AcDbArc
 50
90.000000000
 51
-90.000000000
  0
LINE
  5
B10
330
A02
100
AcDbEntity
  8
View002
100
AcDbLine
 10
58.450000000
 20
135.256000000
 30
0.000000000
 11
55.450000000
 21
135.256000000
 31
0.000000000
  0
ARC
  5
B11
330
A02
100
AcDbEntity
  8
View002
100
AcDbCircle
 10
58.450000000
 20
134.256000000
 30
0.000000000
 40
1.000000000
100
AcDbArc
 50
-90.000000000
 51
90.000000000
  0
LINE
  5
B12
330
A02
100
AcDbEntity
  8
View002
100
AcDbLine
 10
220.899990653
 20
153.649990653
 30
0.000000000
 11
224.199990653
 21
153.649990653
 31
0.000000000
  0
ARC
  5
B13
330
A02
100
AcDbEntity
  8
View002
100
AcDbCircle
 10
220.899990653
 20
154.549990653
 30
0.000000000
 40
0.900000000
100
AcDbArc
 50
90.000000000
 51
-90.000000000
  0
LINE
  5
B14
330
A02
100
AcDbEntity
  8
View002
100
AcDbLine
 10
224.199990653
 20
155.449990653
 30
0.000000000
 11
220.899990653
 21
155.449990653
 31
0.000000000
  0
ARC
  5
B15
330
A02
100
AcDbEntity
  8
View002
100
AcDbCircle
 10
224.199990653
 20
154.549990653
 30
0.000000000
 40
0.900000000
100
AcDbArc
 50
-90.000000000
 51
90.000000000
  0
CIRCLE
  5
B16
330
A02
100
AcDbEntity
  8
View002
100
AcDbCircle
 10
56.950000000
 20
82.878000000
 30
0.000000000
 40
1.143000000
  0
CIRCLE
  5
B17
330
A02
100
AcDbEntity
  8
View002
100
AcDbCircle
 10
56.950000000
 20
153.078000000
 30
0.000000000
 40
1.143000000
  0
CIRCLE
  5
B18
330
A02
100
AcDbEntity
  8
View002
100
AcDbCircle
 10
61.500000000
 20
68.000000000
 30
0.000000000
 40
5.500000000
  0
SPLINE
  5
B19
330
A02
100
AcDbEntity
  8
View002
100
AcDbSpline
210
0
220
0
230
1
 70
8
 71
3
 72
11
 73
7
 74
0
 40
4.712388980
 40
4.712388980
 40
4.712388980
 40
4.712388980
 40
5.497787144
 40
5.497787144
 40
5.497787144
 40
6.283185307
 40
6.283185307
 40
6.283185307
 40
6.283185307
 10
53.350000000
 20
73.000000000
 30
0.000000000
 10
53.428722898
 20
73.078722898
 30
0.000000000
 10
53.506282601
 20
73.156282601
 30
0.000000000
 10
53.562132034
 20
73.212132034
 30
0.000000000
 10
53.617613590
 20
73.267613590
 30
0.000000000
 10
53.649739871
 20
73.299739871
 30
0.000000000
 10
53.650000000
 20
73.300000000
 30
0.000000000
  0
SPLINE
  5
B1A
330
A02
100
AcDbEntity
  8
View002
100
AcDbSpline
210
0
220
0
230
1
 70
8
 71
3
 72
11
 73
7
 74
0
 40
1.570796327
 40
1.570796327
 40
1.570796327
 40
1.570796327
 40
2.356194490
 40
2.356194490
 40
2.356194490
 40
3.141592654
 40
3.141592654
 40
3.141592654
 40
3.141592654
 10
54.950000000
 20
73.000000000
 30
0.000000000
 10
54.871277102
 20
73.078722898
 30
0.000000000
 10
54.793717399
 20
73.156282601
 30
0.000000000
 10
54.737867966
 20
73.212132034
 30
0.000000000
 10
54.682386410
 20
73.267613590
 30
0.000000000
 10
54.650260129
 20
73.299739871
 30
0.000000000
 10
54.650000000
 20
73.300000000
 30
0.000000000
  0
SPLINE
  5
B1B
330
A02
100
AcDbEntity
  8
View002
100
AcDbSpline
210
0
220
0
230
1
 70
8
 71
3
 72
11
 73
7
 74
0
 40
4.712388980
 40
4.712388980
 40
4.712388980
 40
4.712388980
 40
5.497787144
 40
5.497787144
 40
5.497787144
 40
6.283185307
 40
6.283185307
 40
6.283185307
 40
6.283185307
 10
53.350000000
 20
75.900000000
 30
0.000000000
 10
53.428722898
 20
75.821277102
 30
0.000000000
 10
53.506282601
 20
75.743717399
 30
0.000000000
 10
53.562132034
 20
75.687867966
 30
0.000000000
 10
53.617613590
 20
75.632386410
 30
0.000000000
 10
53.649739871
 20
75.600260129
 30
0.000000000
 10
53.650000000
 20
75.600000000
 30
0.000000000
  0
SPLINE
  5
B1C
330
A02
100
AcDbEntity
  8
View002
100
AcDbSpline
210
0
220
0
230
1
 70
8
 71
3
 72
11
 73
7
 74
0
 40
4.712388980
 40
4.712388980
 40
4.712388980
 40
4.712388980
 40
5.497787144
 40
5.497787144
 40
5.497787144
 40
6.283185307
 40
6.283185307
 40
6.283185307
 40
6.283185307
 10
54.950000000
 20
75.900000000
 30
0.000000000
 10
54.871277102
 20
75.821277102
 30
0.000000000
 10
54.793717399
 20
75.743717399
 30
0.000000000
 10
54.737867966
 20
75.687867966
 30
0.000000000
 10
54.682386410
 20
75.632386410
 30
0.000000000
 10
54.650260129
 20
75.600260129
 30
0.000000000
 10
54.650000000
 20
75.600000000
 30
0.000000000
  0
LINE
  5
B1D
330
A02
100
AcDbEntity
  8
View002
100
AcDbLine
 10
69.950000000
 20
76.200000000
 30
0.000000000
 11
53.050000000
 21
76.200000000
 31
0.000000000
  0
LINE
  5
B1E
330
A02
100
AcDbEntity
  8
View002
100
AcDbLine
 10
69.950000000
 20
59.800000000
 30
0.000000000
 11
69.950000000
 21
76.200000000
 31
0.000000000
  0
LINE
  5
B1F
330
A02
100
AcDbEntity
  8
View002
100
AcDbLine
 10
53.050000000
 20
76.200000000
 30
0.000000000
 11
53.050000000
 21
59.800000000
 31
0.000000000
  0
LINE
  5
B20
330
A02
100
AcDbEntity
  8
View002
100
AcDbLine
 10
53.050000000
 20
59.800000000
 30
0.000000000
 11
69.950000000
 21
59.800000000
 31
0.000000000
  0
SPLINE
  5
B21
330
A02
100
AcDbEntity
  8
View002
100
AcDbSpline
210
0
220
0
230
1
 70
8
 71
3
 72
11
 73
7
 74
0
 40
4.712388980
 40
4.712388980
 40
4.712388980
 40
4.712388980
 40
5.497787144
 40
5.497787144
 40
5.497787144
 40
6.283185307
 40
6.283185307
 40
6.283185307
 40
6.283185307
 10
69.850000000
 20
62.800000000
 30
0.000000000
 10
69.771277102
 20
62.721277102
 30
0.000000000
 10
69.693717399
 20
62.643717399
 30
0.000000000
 10
69.637867966
 20
62.587867966
 30
0.000000000
 10
69.582386410
 20
62.532386410
 30
0.000000000
 10
69.550260129
 20
62.500260129
 30
0.000000000
 10
69.550000000
 20
62.500000000
 30
0.000000000
  0
SPLINE
  5
B22
330
A02
100
AcDbEntity
  8
View002
100
AcDbSpline
210
0
220
0
230
1
 70
8
 71
3
 72
11
 73
7
 74
0
 40
1.570796327
 40
1.570796327
 40
1.570796327
 40
1.570796327
 40
2.356194490
 40
2.356194490
 40
2.356194490
 40
3.141592654
 40
3.141592654
 40
3.141592654
 40
3.141592654
 10
68.250000000
 20
62.800000000
 30
0.000000000
 10
68.328722898
 20
62.721277102
 30
0.000000000
 10
68.406282601
 20
62.643717399
 30
0.000000000
 10
68.462132034
 20
62.587867966
 30
0.000000000
 10
68.517613590
 20
62.532386410
 30
0.000000000
 10
68.549739871
 20
62.500260129
 30
0.000000000
 10
68.550000000
 20
62.500000000
 30
0.000000000
  0
SPLINE
  5
B23
330
A02
100
AcDbEntity
  8
View002
100
AcDbSpline
210
0
220
0
230
1
 70
8
 71
3
 72
11
 73
7
 74
0
 40
4.712388980
 40
4.712388980
 40
4.712388980
 40
4.712388980
 40
5.497787144
 40
5.497787144
 40
5.497787144
 40
6.283185307
 40
6.283185307
 40
6.283185307
 40
6.283185307
 10
69.850000000
 20
59.900000000
 30
0.000000000
 10
69.771277102
 20
59.978722898
 30
0.000000000
 10
69.693717399
 20
60.056282601
 30
0.000000000
 10
69.637867966
 20
60.112132034
 30
0.000000000
 10
69.582386410
 20
60.167613590
 30
0.000000000
 10
69.550260129
 20
60.199739871
 30
0.000000000
 10
69.550000000
 20
60.200000000
 30
0.000000000
  0
SPLINE
  5
B24
330
A02
100
AcDbEntity
  8
View002
100
AcDbSpline
210
0
220
0
230
1
 70
8
 71
3
 72
11
 73
7
 74
0
 40
1.570796327
 40
1.570796327
 40
1.570796327
 40
1.570796327
 40
2.356194490
 40
2.356194490
 40
2.356194490
 40
3.141592654
 40
3.141592654
 40
3.141592654
 40
3.141592654
 10
68.250000000
 20
59.900000000
 30
0.000000000
 10
68.328722898
 20
59.978722898
 30
0.000000000
 10
68.406282601
 20
60.056282601
 30
0.000000000
 10
68.462132034
 20
60.112132034
 30
0.000000000
 10
68.517613590
 20
60.167613590
 30
0.000000000
 10
68.549739871
 20
60.199739871
 30
0.000000000
 10
68.550000000
 20
60.200000000
 30
0.000000000
  0
LINE
  5
B25
330
A02
100
AcDbEntity
  8
View002
100
AcDbLine
 10
53.650000000
 20
75.600000000
 30
0.000000000
 11
53.650000000
 21
73.300000000
 31
0.000000000
  0
LINE
  5
B26
330
A02
100
AcDbEntity
  8
View002
100
AcDbLine
 10
69.550000000
 20
60.200000000
 30
0.000000000
 11
69.550000000
 21
62.500000000
 31
0.000000000
  0
LINE
  5
B27
330
A02
100
AcDbEntity
  8
View002
100
AcDbLine
 10
53.650000000
 20
73.300000000
 30
0.000000000
 11
54.650000000
 21
73.300000000
 31
0.000000000
  0
LINE
  5
B28
330
A02
100
AcDbEntity
  8
View002
100
AcDbLine
 10
54.650000000
 20
73.300000000
 30
0.000000000
 11
54.650000000
 21
75.600000000
 31
0.000000000
  0
LINE
  5
B29
330
A02
100
AcDbEntity
  8
View002
100
AcDbLine
 10
54.650000000
 20
75.600000000
 30
0.000000000
 11
53.650000000
 21
75.600000000
 31
0.000000000
  0
LINE
  5
B2A
330
A02
100
AcDbEntity
  8
View002
100
AcDbLine
 10
55.650000000
 20
73.300000000
 30
0.000000000
 11
55.650000000
 21
75.600000000
 31
0.000000000
  0
LINE
  5
B2B
330
A02
100
AcDbEntity
  8
View002
100
AcDbLine
 10
69.550000000
 20
62.500000000
 30
0.000000000
 11
68.550000000
 21
62.500000000
 31
0.000000000
  0
LINE
  5
B2C
330
A02
100
AcDbEntity
  8
View002
100
AcDbLine
 10
68.550000000
 20
62.500000000
 30
0.000000000
 11
68.550000000
 21
60.200000000
 31
0.000000000
  0
LINE
  5
B2D
330
A02
100
AcDbEntity
  8
View002
100
AcDbLine
 10
68.550000000
 20
60.200000000
 30
0.000000000
 11
69.550000000
 21
60.200000000
 31
0.000000000
  0
LINE
  5
B2E
330
A02
100
AcDbEntity
  8
View002
100
AcDbLine
 10
67.550000000
 20
62.500000000
 30
0.000000000
 11
67.550000000
 21
60.200000000
 31
0.000000000
  0
LINE
  5
B2F
330
A02
100
AcDbEntity
  8
View002
100
AcDbLine
 10
54.650000000
 20
73.300000000
 30
0.000000000
 11
55.650000000
 21
73.300000000
 31
0.000000000
  0
LINE
  5
B30
330
A02
100
AcDbEntity
  8
View002
100
AcDbLine
 10
54.650000000
 20
75.600000000
 30
0.000000000
 11
55.650000000
 21
75.600000000
 31
0.000000000
  0
LINE
  5
B31
330
A02
100
AcDbEntity
  8
View002
100
AcDbLine
 10
67.550000000
 20
62.500000000
 30
0.000000000
 11
68.550000000
 21
62.500000000
 31
0.000000000
  0
LINE
  5
B32
330
A02
100
AcDbEntity
  8
View002
100
AcDbLine
 10
67.550000000
 20
60.200000000
 30
0.000000000
 11
68.550000000
 21
60.200000000
 31
0.000000000
  0
CIRCLE
  5
B33
330
A02
100
AcDbEntity
  8
View002
100
AcDbCircle
 10
172.700000000
 20
63.950000000
 30
0.000000000
 40
1.700000000
  0
CIRCLE
  5
B34
330
A02
100
AcDbEntity
  8
View002
100
AcDbCircle
 10
155.700000000
 20
63.950000000
 30
0.000000000
 40
1.700000000
  0
CIRCLE
  5
B35
330
A02
100
AcDbEntity
  8
View002
100
AcDbCircle
 10
138.700000000
 20
63.950000000
 30
0.000000000
 40
1.700000000
  0
CIRCLE
  5
B36
330
A02
100
AcDbEntity
  8
View002
100
AcDbCircle
 10
121.700000000
 20
63.950000000
 30
0.000000000
 40
1.700000000
  0
CIRCLE
  5
B37
330
A02
100
AcDbEntity
  8
View002
100
AcDbCircle
 10
104.700000000
 20
63.950000000
 30
0.000000000
 40
1.700000000
  0
CIRCLE
  5
B38
330
A02
100
AcDbEntity
  8
View002
100
AcDbCircle
 10
87.700000000
 20
63.950000000
 30
0.000000000
 40
1.700000000
  0
SPLINE
  5
B39
330
A02
100
AcDbEntity
  8
View002
100
AcDbSpline
210
0
220
0
230
1
 70
8
 71
3
 72
20
 73
16
 74
0
 40
1.570796327
 40
1.570796327
 40
1.570796327
 40
1.570796327
 40
2.356194490
 40
2.356194490
 40
2.356194490
 40
2.468394228
 40
2.468394228
 40
2.468394228
 40
2.692793703
 40
2.692793703
 40
2.692793703
 40
2.917193178
 40
2.917193178
 40
2.917193178
 40
3.141592654
 40
3.141592654
 40
3.141592654
 40
3.141592654
 10
220.899990653
 20
98.858000000
 30
0.000000000
 10
220.899990653
 20
98.700554205
 30
0.000000000
 10
220.899990653
 20
98.545434799
 30
0.000000000
 10
220.899990653
 20
98.433735931
 30
0.000000000
 10
220.899990653
 20
98.418790991
 30
0.000000000
 10
220.899990653
 20
98.403846051
 30
0.000000000
 10
220.899990653
 20
98.388901111
 30
0.000000000
 10
220.899990653
 20
98.361749659
 30
0.000000000
 10
220.899990653
 20
98.337922182
 30
0.000000000
 10
220.899990653
 20
98.317418679
 30
0.000000000
 10
220.899990653
 20
98.298921479
 30
0.000000000
 10
220.899990653
 20
98.284129671
 30
0.000000000
 10
220.899990653
 20
98.273043253
 30
0.000000000
 10
220.899990653
 20
98.264127831
 30
0.000000000
 10
220.899990653
 20
98.259113414
 30
0.000000000
 10
220.899990653
 20
98.258000000
 30
0.000000000
  0
SPLINE
  5
B3A
330
A02
100
AcDbEntity
  8
View002
100
AcDbSpline
210
0
220
0
230
1
 70
8
 71
3
 72
20
 73
16
 74
0
 40
1.570796327
 40
1.570796327
 40
1.570796327
 40
1.570796327
 40
2.356194490
 40
2.356194490
 40
2.356194490
 40
2.468394228
 40
2.468394228
 40
2.468394228
 40
2.692793703
 40
2.692793703
 40
2.692793703
 40
2.917193178
 40
2.917193178
 40
2.917193178
 40
3.141592654
 40
3.141592654
 40
3.141592654
 40
3.141592654
 10
220.899990653
 20
96.658000000
 30
0.000000000
 10
220.899990653
 20
96.815445795
 30
0.000000000
 10
220.899990653
 20
96.970565201
 30
0.000000000
 10
220.899990653
 20
97.082264069
 30
0.000000000
 10
220.899990653
 20
97.097209009
 30
0.000000000
 10
220.899990653
 20
97.112153949
 30
0.000000000
 10
220.899990653
 20
97.127098889
 30
0.000000000
 10
220.899990653
 20
97.154250341
 30
0.000000000
 10
220.899990653
 20
97.178077818
 30
0.000000000
 10
220.899990653
 20
97.198581321
 30
0.000000000
 10
220.899990653
 20
97.217078521
 30
0.000000000
 10
220.899990653
 20
97.231870329
 30
0.000000000
 10
220.899990653
 20
97.242956747
 30
0.000000000
 10
220.899990653
 20
97.251872169
 30
0.000000000
 10
220.899990653
 20
97.256886586
 30
0.000000000
 10
220.899990653
 20
97.258000000
 30
0.000000000
  0
SPLINE
  5
B3B
330
A02
100
AcDbEntity
  8
View002
100
AcDbSpline
210
0
220
0
230
1
 70
8
 71
3
 72
20
 73
16
 74
0
 40
1.570796327
 40
1.570796327
 40
1.570796327
 40
1.570796327
 40
2.356194490
 40
2.356194490
 40
2.356194490
 40
2.468394228
 40
2.468394228
 40
2.468394228
 40
2.692793703
 40
2.692793703
 40
2.692793703
 40
2.917193178
 40
2.917193178
 40
2.917193178
 40
3.141592654
 40
3.141592654
 40
3.141592654
 40
3.141592654
 10
224.199990653
 20
98.858000000
 30
0.000000000
 10
224.199990653
 20
98.700554205
 30
0.000000000
 10
224.199990653
 20
98.545434799
 30
0.000000000
 10
224.199990653
 20
98.433735931
 30
0.000000000
 10
224.199990653
 20
98.418790991
 30
0.000000000
 10
224.199990653
 20
98.403846051
 30
0.000000000
 10
224.199990653
 20
98.388901111
 30
0.000000000
 10
224.199990653
 20
98.361749659
 30
0.000000000
 10
224.199990653
 20
98.337922182
 30
0.000000000
 10
224.199990653
 20
98.317418679
 30
0.000000000
 10
224.199990653
 20
98.298921479
 30
0.000000000
 10
224.199990653
 20
98.284129671
 30
0.000000000
 10
224.199990653
 20
98.273043253
 30
0.000000000
 10
224.199990653
 20
98.264127831
 30
0.000000000
 10
224.199990653
 20
98.259113414
 30
0.000000000
 10
224.199990653
 20
98.258000000
 30
0.000000000
  0
SPLINE
  5
B3C
330
A02
100
AcDbEntity
  8
View002
100
AcDbSpline
210
0
220
0
230
1
 70
8
 71
3
 72
20
 73
16
 74
0
 40
0.000000000
 40
0.000000000
 40
0.000000000
 40
0.000000000
 40
0.785398163
 40
0.785398163
 40
0.785398163
 40
1.009797639
 40
1.009797639
 40
1.009797639
 40
1.121997376
 40
1.121997376
 40
1.121997376
 40
1.346396852
 40
1.346396852
 40
1.346396852
 40
1.570796327
 40
1.570796327
 40
1.570796327
 40
1.570796327
 10
224.199990653
 20
96.658000000
 30
0.000000000
 10
224.199990653
 20
96.815445795
 30
0.000000000
 10
224.199990653
 20
96.970565201
 30
0.000000000
 10
224.199990653
 20
97.082264069
 30
0.000000000
 10
224.199990653
 20
97.113256778
 30
0.000000000
 10
224.199990653
 20
97.141180262
 30
0.000000000
 10
224.199990653
 20
97.166034520
 30
0.000000000
 10
224.199990653
 20
97.176883453
 30
0.000000000
 10
224.199990653
 20
97.187732387
 30
0.000000000
 10
224.199990653
 20
97.198581321
 30
0.000000000
 10
224.199990653
 20
97.217078521
 30
0.000000000
 10
224.199990653
 20
97.231870329
 30
0.000000000
 10
224.199990653
 20
97.242956747
 30
0.000000000
 10
224.199990653
 20
97.251872169
 30
0.000000000
 10
224.199990653
 20
97.256886586
 30
0.000000000
 10
224.199990653
 20
97.258000000
 30
0.000000000
  0
SPLINE
  5
B3D
330
A02
100
AcDbEntity
  8
View002
100
AcDbSpline
210
0
220
0
230
1
 70
8
 71
3
 72
20
 73
16
 74
0
 40
0.000000000
 40
0.000000000
 40
0.000000000
 40
0.000000000
 40
0.785398163
 40
0.785398163
 40
0.785398163
 40
1.009797639
 40
1.009797639
 40
1.009797639
 40
1.121997376
 40
1.121997376
 40
1.121997376
 40
1.346396852
 40
1.346396852
 40
1.346396852
 40
1.570796327
 40
1.570796327
 40
1.570796327
 40
1.570796327
 10
55.450000000
 20
132.656000000
 30
0.000000000
 10
55.450000000
 20
132.813445795
 30
0.000000000
 10
55.450000000
 20
132.968565201
 30
0.000000000
 10
55.450000000
 20
133.080264069
 30
0.000000000
 10
55.450000000
 20
133.111256778
 30
0.000000000
 10
55.450000000
 20
133.139180262
 30
0.000000000
 10
55.450000000
 20
133.164034520
 30
0.000000000
 10
55.450000000
 20
133.174883453
 30
0.000000000
 10
55.450000000
 20
133.185732387
 30
0.000000000
 10
55.450000000
 20
133.196581321
 30
0.000000000
 10
55.450000000
 20
133.215078521
 30
0.000000000
 10
55.450000000
 20
133.229870329
 30
0.000000000
 10
55.450000000
 20
133.240956747
 30
0.000000000
 10
55.450000000
 20
133.249872169
 30
0.000000000
 10
55.450000000
 20
133.254886586
 30
0.000000000
 10
55.450000000
 20
133.256000000
 30
0.000000000
  0
SPLINE
  5
B3E
330
A02
100
AcDbEntity
  8
View002
100
AcDbSpline
210
0
220
0
230
1
 70
8
 71
3
 72
20
 73
16
 74
0
 40
0.000000000
 40
0.000000000
 40
0.000000000
 40
0.000000000
 40
0.785398163
 40
0.785398163
 40
0.785398163
 40
1.009797639
 40
1.009797639
 40
1.009797639
 40
1.121997376
 40
1.121997376
 40
1.121997376
 40
1.346396852
 40
1.346396852
 40
1.346396852
 40
1.570796327
 40
1.570796327
 40
1.570796327
 40
1.570796327
 10
58.450000000
 20
132.656000000
 30
0.000000000
 10
58.450000000
 20
132.813445795
 30
0.000000000
 10
58.450000000
 20
132.968565201
 30
0.000000000
 10
58.450000000
 20
133.080264069
 30
0.000000000
 10
58.450000000
 20
133.111256778
 30
0.000000000
 10
58.450000000
 20
133.139180262
 30
0.000000000
 10
58.450000000
 20
133.164034520
 30
0.000000000
 10
58.450000000
 20
133.174883453
 30
0.000000000
 10
58.450000000
 20
133.185732387
 30
0.000000000
 10
58.450000000
 20
133.196581321
 30
0.000000000
 10
58.450000000
 20
133.215078521
 30
0.000000000
 10
58.450000000
 20
133.229870329
 30
0.000000000
 10
58.450000000
 20
133.240956747
 30
0.000000000
 10
58.450000000
 20
133.249872169
 30
0.000000000
 10
58.450000000
 20
133.254886586
 30
0.000000000
 10
58.450000000
 20
133.256000000
 30
0.000000000
  0
SPLINE
  5
B3F
330
A02
100
AcDbEntity
  8
View002
100
AcDbSpline
210
0
220
0
230
1
 70
8
 71
3
 72
20
 73
16
 74
0
 40
0.000000000
 40
0.000000000
 40
0.000000000
 40
0.000000000
 40
0.785398163
 40
0.785398163
 40
0.785398163
 40
1.009797639
 40
1.009797639
 40
1.009797639
 40
1.121997376
 40
1.121997376
 40
1.121997376
 40
1.346396852
 40
1.346396852
 40
1.346396852
 40
1.570796327
 40
1.570796327
 40
1.570796327
 40
1.570796327
 10
55.450000000
 20
135.856000000
 30
0.000000000
 10
55.450000000
 20
135.698554205
 30
0.000000000
 10
55.450000000
 20
135.543434799
 30
0.000000000
 10
55.450000000
 20
135.431735931
 30
0.000000000
 10
55.450000000
 20
135.400743222
 30
0.000000000
 10
55.450000000
 20
135.372819738
 30
0.000000000
 10
55.450000000
 20
135.347965480
 30
0.000000000
 10
55.450000000
 20
135.337116547
 30
0.000000000
 10
55.450000000
 20
135.326267613
 30
0.000000000
 10
55.450000000
 20
135.315418679
 30
0.000000000
 10
55.450000000
 20
135.296921479
 30
0.000000000
 10
55.450000000
 20
135.282129671
 30
0.000000000
 10
55.450000000
 20
135.271043253
 30
0.000000000
 10
55.450000000
 20
135.262127831
 30
0.000000000
 10
55.450000000
 20
135.257113414
 30
0.000000000
 10
55.450000000
 20
135.256000000
 30
0.000000000
  0
SPLINE
  5
B40
330
A02
100
AcDbEntity
  8
View002
100
AcDbSpline
210
0
220
0
230
1
 70
8
 71
3
 72
20
 73
16
 74
0
 40
1.570796327
 40
1.570796327
 40
1.570796327
 40
1.570796327
 40
2.356194490
 40
2.356194490
 40
2.356194490
 40
2.468394228
 40
2.468394228
 40
2.468394228
 40
2.692793703
 40
2.692793703
 40
2.692793703
 40
2.917193178
 40
2.917193178
 40
2.917193178
 40
3.141592654
 40
3.141592654
 40
3.141592654
 40
3.141592654
 10
58.450000000
 20
135.856000000
 30
0.000000000
 10
58.450000000
 20
135.698554205
 30
0.000000000
 10
58.450000000
 20
135.543434799
 30
0.000000000
 10
58.450000000
 20
135.431735931
 30
0.000000000
 10
58.450000000
 20
135.416790991
 30
0.000000000
 10
58.450000000
 20
135.401846051
 30
0.000000000
 10
58.450000000
 20
135.386901111
 30
0.000000000
 10
58.450000000
 20
135.359749659
 30
0.000000000
 10
58.450000000
 20
135.335922182
 30
0.000000000
 10
58.450000000
 20
135.315418679
 30
0.000000000
 10
58.450000000
 20
135.296921479
 30
0.000000000
 10
58.450000000
 20
135.282129671
 30
0.000000000
 10
58.450000000
 20
135.271043253
 30
0.000000000
 10
58.450000000
 20
135.262127831
 30
0.000000000
 10
58.450000000
 20
135.257113414
 30
0.000000000
 10
58.450000000
 20
135.256000000
 30
0.000000000
  0
SPLINE
  5
B41
330
A02
100
AcDbEntity
  8
View002
100
AcDbSpline
210
0
220
0
230
1
 70
8
 71
3
 72
20
 73
16
 74
0
 40
0.000000000
 40
0.000000000
 40
0.000000000
 40
0.000000000
 40
0.785398163
 40
0.785398163
 40
0.785398163
 40
1.009797639
 40
1.009797639
 40
1.009797639
 40
1.121997376
 40
1.121997376
 40
1.121997376
 40
1.346396852
 40
1.346396852
 40
1.346396852
 40
1.570796327
 40
1.570796327
 40
1.570796327
 40
1.570796327
 10
220.899990653
 20
153.049990653
 30
0.000000000
 10
220.899990653
 20
153.207436449
 30
0.000000000
 10
220.899990653
 20
153.362555855
 30
0.000000000
 10
220.899990653
 20
153.474254722
 30
0.000000000
 10
220.899990653
 20
153.505247432
 30
0.000000000
 10
220.899990653
 20
153.533170916
 30
0.000000000
 10
220.899990653
 20
153.558025173
 30
0.000000000
 10
220.899990653
 20
153.568874107
 30
0.000000000
 10
220.899990653
 20
153.579723040
 30
0.000000000
 10
220.899990653
 20
153.590571974
 30
0.000000000
 10
220.899990653
 20
153.609069174
 30
0.000000000
 10
220.899990653
 20
153.623860983
 30
0.000000000
 10
220.899990653
 20
153.634947401
 30
0.000000000
 10
220.899990653
 20
153.643862822
 30
0.000000000
 10
220.899990653
 20
153.648877240
 30
0.000000000
 10
220.899990653
 20
153.649990653
 30
0.000000000
  0
SPLINE
  5
B42
330
A02
100
AcDbEntity
  8
View002
100
AcDbSpline
210
0
220
0
230
1
 70
8
 71
3
 72
20
 73
16
 74
0
 40
0.000000000
 40
0.000000000
 40
0.000000000
 40
0.000000000
 40
0.785398163
 40
0.785398163
 40
0.785398163
 40
1.009797639
 40
1.009797639
 40
1.009797639
 40
1.121997376
 40
1.121997376
 40
1.121997376
 40
1.346396852
 40
1.346396852
 40
1.346396852
 40
1.570796327
 40
1.570796327
 40
1.570796327
 40
1.570796327
 10
224.199990653
 20
153.049990653
 30
0.000000000
 10
224.199990653
 20
153.207436449
 30
0.000000000
 10
224.199990653
 20
153.362555855
 30
0.000000000
 10
224.199990653
 20
153.474254722
 30
0.000000000
 10
224.199990653
 20
153.505247432
 30
0.000000000
 10
224.199990653
 20
153.533170916
 30
0.000000000
 10
224.199990653
 20
153.558025173
 30
0.000000000
 10
224.199990653
 20
153.568874107
 30
0.000000000
 10
224.199990653
 20
153.579723040
 30
0.000000000
 10
224.199990653
 20
153.590571974
 30
0.000000000
 10
224.199990653
 20
153.609069174
 30
0.000000000
 10
224.199990653
 20
153.623860983
 30
0.000000000
 10
224.199990653
 20
153.634947401
 30
0.000000000
 10
224.199990653
 20
153.643862822
 30
0.000000000
 10
224.199990653
 20
153.648877240
 30
0.000000000
 10
224.199990653
 20
153.649990653
 30
0.000000000
  0
SPLINE
  5
B43
330
A02
100
AcDbEntity
  8
View002
100
AcDbSpline
210
0
220
0
230
1
 70
8
 71
3
 72
20
 73
16
 74
0
 40
0.000000000
 40
0.000000000
 40
0.000000000
 40
0.000000000
 40
0.785398163
 40
0.785398163
 40
0.785398163
 40
1.009797639
 40
1.009797639
 40
1.009797639
 40
1.121997376
 40
1.121997376
 40
1.121997376
 40
1.346396852
 40
1.346396852
 40
1.346396852
 40
1.570796327
 40
1.570796327
 40
1.570796327
 40
1.570796327
 10
220.899990653
 20
156.049990653
 30
0.000000000
 10
220.899990653
 20
155.892544858
 30
0.000000000
 10
220.899990653
 20
155.737425452
 30
0.000000000
 10
220.899990653
 20
155.625726585
 30
0.000000000
 10
220.899990653
 20
155.594733875
 30
0.000000000
 10
220.899990653
 20
155.566810391
 30
0.000000000
 10
220.899990653
 20
155.541956134
 30
0.000000000
 10
220.899990653
 20
155.531107200
 30
0.000000000
 10
220.899990653
 20
155.520258266
 30
0.000000000
 10
220.899990653
 20
155.509409333
 30
0.000000000
 10
220.899990653
 20
155.490912133
 30
0.000000000
 10
220.899990653
 20
155.476120324
 30
0.000000000
 10
220.899990653
 20
155.465033906
 30
0.000000000
 10
220.899990653
 20
155.456118485
 30
0.000000000
 10
220.899990653
 20
155.451104067
 30
0.000000000
 10
220.899990653
 20
155.449990653
 30
0.000000000
  0
SPLINE
  5
B44
330
A02
100
AcDbEntity
  8
View002
100
AcDbSpline
210
0
220
0
230
1
 70
8
 71
3
 72
20
 73
16
 74
0
 40
1.570796327
 40
1.570796327
 40
1.570796327
 40
1.570796327
 40
2.356194490
 40
2.356194490
 40
2.356194490
 40
2.468394228
 40
2.468394228
 40
2.468394228
 40
2.692793703
 40
2.692793703
 40
2.692793703
 40
2.917193178
 40
2.917193178
 40
2.917193178
 40
3.141592654
 40
3.141592654
 40
3.141592654
 40
3.141592654
 10
224.199990653
 20
156.049990653
 30
0.000000000
 10
224.199990653
 20
155.892544858
 30
0.000000000
 10
224.199990653
 20
155.737425452
 30
0.000000000
 10
224.199990653
 20
155.625726585
 30
0.000000000
 10
224.199990653
 20
155.610781645
 30
0.000000000
 10
224.199990653
 20
155.595836704
 30
0.000000000
 10
224.199990653
 20
155.580891764
 30
0.000000000
 10
224.199990653
 20
155.553740312
 30
0.000000000
 10
224.199990653
 20
155.529912835
 30
0.000000000
 10
224.199990653
 20
155.509409333
 30
0.000000000
 10
224.199990653
 20
155.490912133
 30
0.000000000
 10
224.199990653
 20
155.476120324
 30
0.000000000
 10
224.199990653
 20
155.465033906
 30
0.000000000
 10
224.199990653
 20
155.456118485
 30
0.000000000
 10
224.199990653
 20
155.451104067
 30
0.000000000
 10
224.199990653
 20
155.449990653
 30
0.000000000
  0
LINE
  5
B45
330
A02
100
AcDbEntity
  8
View002
100
AcDbLine
 10
53.350000000
 20
73.000000000
 30
0.000000000
 11
54.950000000
 21
73.000000000
 31
0.000000000
  0
LINE
  5
B46
330
A02
100
AcDbEntity
  8
View002
100
AcDbLine
 10
53.350000000
 20
75.900000000
 30
0.000000000
 11
53.350000000
 21
73.000000000
 31
0.000000000
  0
LINE
  5
B47
330
A02
100
AcDbEntity
  8
View002
100
AcDbLine
 10
54.950000000
 20
73.000000000
 30
0.000000000
 11
54.950000000
 21
73.300000000
 31
0.000000000
  0
LINE
  5
B48
330
A02
100
AcDbEntity
  8
View002
100
AcDbLine
 10
54.950000000
 20
75.600000000
 30
0.000000000
 11
54.950000000
 21
75.900000000
 31
0.000000000
  0
LINE
  5
B49
330
A02
100
AcDbEntity
  8
View002
100
AcDbLine
 10
54.950000000
 20
75.900000000
 30
0.000000000
 11
53.350000000
 21
75.900000000
 31
0.000000000
  0
LINE
  5
B4A
330
A02
100
AcDbEntity
  8
View002
100
AcDbLine
 10
69.850000000
 20
62.800000000
 30
0.000000000
 11
68.250000000
 21
62.800000000
 31
0.000000000
  0
LINE
  5
B4B
330
A02
100
AcDbEntity
  8
View002
100
AcDbLine
 10
69.850000000
 20
59.900000000
 30
0.000000000
 11
69.850000000
 21
62.800000000
 31
0.000000000
  0
LINE
  5
B4C
330
A02
100
AcDbEntity
  8
View002
100
AcDbLine
 10
68.250000000
 20
62.800000000
 30
0.000000000
 11
68.250000000
 21
62.500000000
 31
0.000000000
  0
LINE
  5
B4D
330
A02
100
AcDbEntity
  8
View002
100
AcDbLine
 10
68.250000000
 20
60.200000000
 30
0.000000000
 11
68.250000000
 21
59.900000000
 31
0.000000000
  0
LINE
  5
B4E
330
A02
100
AcDbEntity
  8
View002
100
AcDbLine
 10
68.250000000
 20
59.900000000
 30
0.000000000
 11
69.850000000
 21
59.900000000
 31
0.000000000
  0
ENDSEC
  0
SECTION
  2
OBJECTS
  0
DICTIONARY
  5
F000
330
0
100
AcDbDictionary
  3
ACAD_GROUP
350
F001
  0
DICTIONARY
  5
F001
330
F000
100
AcDbDictionary
  0
ENDSEC
  0
EOF