<?xml version="1.0" encoding="UTF-8" standalone="no"?>
<svg
   version="1.2"
   width="18.292219mm"
   height="75.442223mm"
   viewBox="0 0 1829.222 7544.2224"
   preserveAspectRatio="xMidYMid"
   fill-rule="evenodd"
   stroke-width="28.222"
   stroke-linejoin="round"
   xml:space="preserve"
   id="svg55"
   sodipodi:docname="Light Symbol Reference.svg"
   inkscape:version="1.3 (0e150ed, 2023-07-21)"
   xmlns:inkscape="http://www.inkscape.org/namespaces/inkscape"
   xmlns:sodipodi="http://sodipodi.sourceforge.net/DTD/sodipodi-0.dtd"
   xmlns="http://www.w3.org/2000/svg"
   xmlns:svg="http://www.w3.org/2000/svg"
   xmlns:ooo="http://xml.openoffice.org/svg/export"><sodipodi:namedview
   id="namedview55"
   pagecolor="#ffffff"
   bordercolor="#666666"
   borderopacity="1.0"
   inkscape:showpageshadow="2"
   inkscape:pageopacity="0.0"
   inkscape:pagecheckerboard="0"
   inkscape:deskcolor="#d1d1d1"
   inkscape:document-units="mm"
   showgrid="false"
   inkscape:zoom="2.4239835"
   inkscape:cx="132.83919"
   inkscape:cy="227.93059"
   inkscape:window-width="1920"
   inkscape:window-height="1140"
   inkscape:window-x="2304"
   inkscape:window-y="0"
   inkscape:window-maximized="1"
   inkscape:current-layer="g53" />&#10; <defs
   class="ClipPathGroup"
   id="defs2">&#10;  <clipPath
   id="presentation_clip_path"
   clipPathUnits="userSpaceOnUse">&#10;   <rect
   x="0"
   y="0"
   width="21590"
   height="27940"
   id="rect1" />&#10;  </clipPath>&#10;  <clipPath
   id="presentation_clip_path_shrink"
   clipPathUnits="userSpaceOnUse">&#10;   <rect
   x="21"
   y="27"
   width="21547"
   height="27885"
   id="rect2" />&#10;  </clipPath>&#10; </defs>&#10; <defs
   class="TextShapeIndex"
   id="defs3">&#10;  <g
   ooo:slide="id1"
   ooo:id-list="id3 id4 id5 id6 id7 id8 id9 id10 id11 id12 id13 id14 id15 id16 id17 id18 id19 id20 id21 id22 id23 id24 id25 id26 id27 id28 id29 id30 id31 id32 id33 id34 id35 id36 id37 id38 id39 id40 id41 id42"
   id="g2" />&#10; </defs>&#10; <defs
   class="EmbeddedBulletChars"
   id="defs12">&#10;  <g
   id="bullet-char-template-57356"
   transform="matrix(4.8828125e-4,0,0,-4.8828125e-4,0,0)">&#10;   <path
   d="M 580,1141 1163,571 580,0 -4,571 Z"
   id="path3" />&#10;  </g>&#10;  <g
   id="bullet-char-template-57354"
   transform="matrix(4.8828125e-4,0,0,-4.8828125e-4,0,0)">&#10;   <path
   d="M 8,1128 H 1137 V 0 H 8 Z"
   id="path4" />&#10;  </g>&#10;  <g
   id="bullet-char-template-10146"
   transform="matrix(4.8828125e-4,0,0,-4.8828125e-4,0,0)">&#10;   <path
   d="M 174,0 602,739 174,1481 1456,739 Z M 1358,739 309,1346 659,739 Z"
   id="path5" />&#10;  </g>&#10;  <g
   id="bullet-char-template-10132"
   transform="matrix(4.8828125e-4,0,0,-4.8828125e-4,0,0)">&#10;   <path
   d="M 2015,739 1276,0 H 717 l 543,543 H 174 v 393 h 1086 l -543,545 h 557 z"
   id="path6" />&#10;  </g>&#10;  <g
   id="bullet-char-template-10007"
   transform="matrix(4.8828125e-4,0,0,-4.8828125e-4,0,0)">&#10;   <path
   d="m 0,-2 c -7,16 -16,29 -25,39 l 381,530 c -94,256 -141,385 -141,387 0,25 13,38 40,38 9,0 21,-2 34,-5 21,4 42,12 65,25 l 27,-13 111,-251 280,301 64,-25 24,25 c 21,-10 41,-24 62,-43 C 886,937 835,863 770,784 769,783 710,716 594,584 L 774,223 c 0,-27 -21,-55 -63,-84 l 16,-20 C 717,90 699,76 672,76 641,76 570,178 457,381 L 164,-76 c -22,-34 -53,-51 -92,-51 -42,0 -63,17 -64,51 -7,9 -10,24 -10,44 0,9 1,19 2,30 z"
   id="path7" />&#10;  </g>&#10;  <g
   id="bullet-char-template-10004"
   transform="matrix(4.8828125e-4,0,0,-4.8828125e-4,0,0)">&#10;   <path
   d="M 285,-33 C 182,-33 111,30 74,156 52,228 41,333 41,471 c 0,78 14,145 41,201 34,71 87,106 158,106 53,0 88,-31 106,-94 l 23,-176 c 8,-64 28,-97 59,-98 l 735,706 c 11,11 33,17 66,17 42,0 63,-15 63,-46 V 965 c 0,-36 -10,-64 -30,-84 L 442,47 C 390,-6 338,-33 285,-33 Z"
   id="path8" />&#10;  </g>&#10;  <g
   id="bullet-char-template-9679"
   transform="matrix(4.8828125e-4,0,0,-4.8828125e-4,0,0)">&#10;   <path
   d="M 813,0 C 632,0 489,54 383,161 276,268 223,411 223,592 c 0,181 53,324 160,431 106,107 249,161 430,161 179,0 323,-54 432,-161 108,-107 162,-251 162,-431 0,-180 -54,-324 -162,-431 C 1136,54 992,0 813,0 Z"
   id="path9" />&#10;  </g>&#10;  <g
   id="bullet-char-template-8226"
   transform="matrix(4.8828125e-4,0,0,-4.8828125e-4,0,0)">&#10;   <path
   d="m 346,457 c -73,0 -137,26 -191,78 -54,51 -81,114 -81,188 0,73 27,136 81,188 54,52 118,78 191,78 73,0 134,-26 185,-79 51,-51 77,-114 77,-187 0,-75 -25,-137 -76,-188 -50,-52 -112,-78 -186,-78 z"
   id="path10" />&#10;  </g>&#10;  <g
   id="bullet-char-template-8211"
   transform="matrix(4.8828125e-4,0,0,-4.8828125e-4,0,0)">&#10;   <path
   d="M -4,459 H 1135 V 606 H -4 Z"
   id="path11" />&#10;  </g>&#10;  <g
   id="bullet-char-template-61548"
   transform="matrix(4.8828125e-4,0,0,-4.8828125e-4,0,0)">&#10;   <path
   d="m 173,740 c 0,163 58,303 173,419 116,115 255,173 419,173 163,0 302,-58 418,-173 116,-116 174,-256 174,-419 0,-163 -58,-303 -174,-418 C 1067,206 928,148 765,148 601,148 462,206 346,322 231,437 173,577 173,740 Z"
   id="path12" />&#10;  </g>&#10; </defs>&#10; <g
   id="g12"
   transform="translate(-1534.889,-1635.889)">&#10;  <g
   id="id2"
   class="Master_Slide">&#10;   <g
   id="bg-id2"
   class="Background" />&#10;   <g
   id="bo-id2"
   class="BackgroundObjects" />&#10;  </g>&#10; </g>&#10; <g
   class="SlideGroup"
   id="g55"
   style="stroke:#000000;stroke-opacity:1"
   transform="translate(-1534.889,-1635.889)">&#10;  <g
   id="g54"
   style="stroke:#000000;stroke-opacity:1">&#10;   <g
   id="container-id1"
   style="stroke:#000000;stroke-opacity:1">&#10;    <g
   id="id1"
   class="Slide"
   clip-path="url(#presentation_clip_path)"
   style="stroke:#000000;stroke-opacity:1">&#10;     <g
   class="Page"
   id="g53"
   style="stroke:#000000;stroke-opacity:1">&#10;      <g
   class="com.sun.star.drawing.EllipseShape"
   id="g13"
   style="stroke:#000000;stroke-opacity:1"
   inkscape:export-filename="Low Beam.png"
   inkscape:export-xdpi="82.18"
   inkscape:export-ydpi="82.18">&#10;       <g
   id="id3"
   style="stroke:#000000;stroke-opacity:1">&#10;        &#10;        <path
   fill="#00a933"
   stroke="none"
   d="m 2570,1662 c 52,-8 106,-12 160,-12 109,0 216,17 310,48 94,31 173,77 227,131 54,54 83,116 83,179 0,63 -29,125 -83,179 -54,54 -133,100 -227,131 -94,31 -201,48 -310,48 -54,0 -108,-4 -160,-12 z"
   id="path13"
   style="stroke:#000000;stroke-opacity:1" />&#10;       </g>&#10;      </g>&#10;      <g
   class="com.sun.star.drawing.CustomShape"
   id="g14"
   style="stroke:#000000;stroke-opacity:1">&#10;       <g
   id="id4"
   style="stroke:#000000;stroke-opacity:1">&#10;        &#10;        <path
   fill="#00a933"
   stroke="none"
   d="m 2062,1885 -350,128 -30,-84 701,-256 29,84 z"
   id="path14"
   style="stroke:#000000;stroke-opacity:1" />&#10;       </g>&#10;      </g>&#10;      <g
   class="com.sun.star.drawing.CustomShape"
   id="g15"
   style="stroke:#000000;stroke-opacity:1">&#10;       <g
   id="id5"
   style="stroke:#000000;stroke-opacity:1">&#10;        &#10;        <path
   fill="#00a933"
   stroke="none"
   d="m 2062,2064 -351,127 -29,-84 701,-255 30,84 z"
   id="path15"
   style="stroke:#000000;stroke-opacity:1" />&#10;       </g>&#10;      </g>&#10;      <g
   class="com.sun.star.drawing.CustomShape"
   id="g16"
   style="stroke:#000000;stroke-opacity:1">&#10;       <g
   id="id6"
   style="stroke:#000000;stroke-opacity:1">&#10;        &#10;        <path
   fill="#00a933"
   stroke="none"
   d="m 2062,2243 -351,127 -29,-84 701,-255 30,84 z"
   id="path16"
   style="stroke:#000000;stroke-opacity:1" />&#10;       </g>&#10;      </g>&#10;      <g
   class="com.sun.star.drawing.CustomShape"
   id="g17"
   style="stroke:#000000;stroke-opacity:1">&#10;       <g
   id="id7"
   style="stroke:#000000;stroke-opacity:1">&#10;        &#10;        <path
   fill="#00a933"
   stroke="none"
   d="m 2062,2422 -351,127 -29,-84 701,-255 30,84 z"
   id="path17"
   style="stroke:#000000;stroke-opacity:1" />&#10;       </g>&#10;      </g>&#10;      <g
   class="com.sun.star.drawing.EllipseShape"
   id="g18"
   style="stroke:#000000;stroke-opacity:1"
   inkscape:export-filename="High Beam.png"
   inkscape:export-xdpi="82.18"
   inkscape:export-ydpi="82.18">&#10;       <g
   id="id8"
   style="stroke:#000000;stroke-opacity:1">&#10;        &#10;        <path
   fill="#0000ff"
   stroke="none"
   d="m 2570,3162 c 52,-8 106,-12 160,-12 109,0 216,17 310,48 94,31 173,77 227,131 54,54 83,116 83,179 0,63 -29,125 -83,179 -54,54 -133,100 -227,131 -94,31 -201,48 -310,48 -54,0 -108,-4 -160,-12 z"
   id="path18"
   style="stroke:#000000;stroke-opacity:1" />&#10;       </g>&#10;      </g>&#10;      <g
   class="com.sun.star.drawing.CustomShape"
   id="g19"
   style="stroke:#000000;stroke-opacity:1">&#10;       <g
   id="id9"
   style="stroke:#000000;stroke-opacity:1">&#10;        &#10;        <path
   fill="#0000ff"
   stroke="none"
   d="m 2047,3288 h -373 l 1,-89 h 746 l -1,89 z"
   id="path19"
   style="stroke:#000000;stroke-opacity:1" />&#10;       </g>&#10;      </g>&#10;      <g
   class="com.sun.star.drawing.CustomShape"
   id="g20"
   style="stroke:#000000;stroke-opacity:1">&#10;       <g
   id="id10"
   style="stroke:#000000;stroke-opacity:1">&#10;        &#10;        <path
   fill="#0000ff"
   stroke="none"
   d="m 2047,3466 h -373 l 1,-89 h 746 l -1,89 z"
   id="path20"
   style="stroke:#000000;stroke-opacity:1" />&#10;       </g>&#10;      </g>&#10;      <g
   class="com.sun.star.drawing.CustomShape"
   id="g21"
   style="stroke:#000000;stroke-opacity:1">&#10;       <g
   id="id11"
   style="stroke:#000000;stroke-opacity:1">&#10;        &#10;        <path
   fill="#0000ff"
   stroke="none"
   d="m 2048,3638 h -373 l 1,-89 h 746 l -1,89 z"
   id="path21"
   style="stroke:#000000;stroke-opacity:1" />&#10;       </g>&#10;      </g>&#10;      <g
   class="com.sun.star.drawing.CustomShape"
   id="g22"
   style="stroke:#000000;stroke-opacity:1">&#10;       <g
   id="id12"
   style="stroke:#000000;stroke-opacity:1">&#10;        &#10;        <path
   fill="#0000ff"
   stroke="none"
   d="m 2048,3816 h -373 l 1,-89 h 746 l -1,89 z"
   id="path22"
   style="stroke:#000000;stroke-opacity:1" />&#10;       </g>&#10;      </g>&#10;      <g
   class="com.sun.star.drawing.EllipseShape"
   id="g23"
   style="stroke:#000000;stroke-opacity:1"
   inkscape:export-filename="Front Fog.png"
   inkscape:export-xdpi="82.18"
   inkscape:export-ydpi="82.18">&#10;       <g
   id="id13"
   style="stroke:#000000;stroke-opacity:1">&#10;        &#10;        <path
   fill="#00a933"
   stroke="none"
   d="m 2569,4612 c 26,-8 52,-12 79,-12 53,0 105,17 151,48 46,31 84,77 110,131 27,54 41,116 41,179 0,63 -14,125 -41,179 -26,54 -64,100 -110,131 -46,31 -98,48 -151,48 -27,0 -53,-4 -79,-12 z"
   id="path23"
   style="stroke:#000000;stroke-opacity:1" />&#10;       </g>&#10;      </g>&#10;      <g
   class="com.sun.star.drawing.CustomShape"
   id="g28"
   style="stroke:#000000;stroke-opacity:1">&#10;       <g
   id="id18"
   style="stroke:#000000;stroke-opacity:1">&#10;        &#10;        <path
   fill="#00a933"
   stroke="none"
   d="m 2111,4704 c -14,13 -14,55 -17,87 3,33 4,77 17,86 15,12 16,57 17,89 -1,41 -3,74 -17,89 h -135 c 15,-16 15,-54 17,-89 -1,-23 -2,-79 -17,-87 -14,-11 -15,-56 -17,-90 2,-33 3,-76 17,-85 z"
   id="path28"
   style="stroke:#000000;stroke-opacity:1" />&#10;       </g>&#10;      </g><g
   class="com.sun.star.drawing.CustomShape"
   id="g24"
   style="stroke:#000000;stroke-opacity:1">&#10;       <g
   id="id14"
   style="stroke:#000000;stroke-opacity:1">&#10;        &#10;        <path
   fill="#00a933"
   stroke="none"
   d="m 2062,4914 -351,127 -29,-84 701,-255 30,84 z"
   id="path24"
   style="stroke:#000000;stroke-opacity:1" />&#10;       </g>&#10;      </g>&#10;      <g
   class="com.sun.star.drawing.CustomShape"
   id="g27"
   style="stroke:#000000;stroke-opacity:1">&#10;       <g
   id="id17"
   style="stroke:#000000;stroke-opacity:1">&#10;        &#10;        <path
   fill="#00a933"
   stroke="none"
   d="m 2134,5050 c -13,13 -13,55 -15,87 2,33 3,77 15,86 14,12 15,57 16,89 -1,41 -2,74 -16,89 h -126 c 14,-16 15,-54 16,-89 -1,-23 -2,-79 -16,-87 -12,-11 -13,-56 -16,-90 3,-33 4,-76 16,-85 z"
   id="path27"
   style="stroke:#000000;stroke-opacity:1" />&#10;       </g>&#10;      </g><g
   class="com.sun.star.drawing.CustomShape"
   id="g25"
   style="stroke:#000000;stroke-opacity:1">&#10;       <g
   id="id15"
   style="stroke:#000000;stroke-opacity:1">&#10;        &#10;        <path
   fill="#00a933"
   stroke="none"
   d="m 2062,5093 -351,127 -29,-84 701,-255 30,84 z"
   id="path25"
   style="stroke:#000000;stroke-opacity:1" />&#10;       </g>&#10;      </g>&#10;      <g
   class="com.sun.star.drawing.CustomShape"
   id="g26"
   style="stroke:#000000;stroke-opacity:1">&#10;       <g
   id="id16"
   style="stroke:#000000;stroke-opacity:1">&#10;        &#10;        <path
   fill="#00a933"
   stroke="none"
   d="m 2062,5272 -351,127 -29,-84 701,-255 30,84 z"
   id="path26"
   style="stroke:#000000;stroke-opacity:1" />&#10;       </g>&#10;      </g>&#10;      &#10;      &#10;      <g
   class="com.sun.star.drawing.EllipseShape"
   id="g29"
   style="stroke:#000000;stroke-opacity:1"
   inkscape:export-filename="Rear Fog.png"
   inkscape:export-xdpi="82.18"
   inkscape:export-ydpi="82.18">&#10;       <g
   id="id19"
   style="stroke:#000000;stroke-opacity:1">&#10;        &#10;        <path
   fill="#ff8000"
   stroke="none"
   d="m 2062,6605 c -25,8 -51,12 -77,12 -54,0 -106,-17 -152,-48 -46,-31 -84,-77 -110,-131 -27,-54 -41,-116 -41,-179 0,-63 14,-125 41,-179 26,-54 64,-100 110,-131 46,-31 98,-48 152,-48 26,0 52,4 77,12 z"
   id="path29"
   style="stroke:#000000;stroke-opacity:1" />&#10;       </g>&#10;      </g>&#10;      <g
   class="com.sun.star.drawing.CustomShape"
   id="g34"
   style="stroke:#000000;stroke-opacity:1">&#10;       <g
   id="id24"
   style="stroke:#000000;stroke-opacity:1">&#10;        &#10;        <path
   fill="#ff8000"
   stroke="none"
   d="m 2520,5905 c 14,13 14,55 17,87 -3,33 -4,77 -17,86 -15,12 -16,57 -17,89 1,41 3,74 17,89 h 135 c -15,-16 -15,-54 -17,-89 1,-23 2,-79 17,-87 14,-11 15,-56 17,-90 -2,-33 -3,-76 -17,-85 z"
   id="path34"
   style="stroke:#000000;stroke-opacity:1" />&#10;       </g>&#10;      </g><g
   class="com.sun.star.drawing.CustomShape"
   id="g30"
   style="stroke:#000000;stroke-opacity:1">&#10;       <g
   id="id20"
   style="stroke:#000000;stroke-opacity:1">&#10;        &#10;        <path
   fill="#ff8000"
   stroke="none"
   d="m 2523,6088 h -373 l -1,-89 h 746 l 1,89 z"
   id="path30"
   style="stroke:#000000;stroke-opacity:1" />&#10;       </g>&#10;      </g>&#10;      <g
   class="com.sun.star.drawing.CustomShape"
   id="g33"
   style="stroke:#000000;stroke-opacity:1">&#10;       <g
   id="id23"
   style="stroke:#000000;stroke-opacity:1">&#10;        &#10;        <path
   fill="#ff8000"
   stroke="none"
   d="m 2515,6250 c 13,13 13,55 15,87 -2,33 -3,77 -15,86 -14,12 -15,57 -16,89 1,41 2,74 16,89 h 126 c -14,-16 -15,-54 -16,-89 1,-23 2,-79 16,-87 12,-11 13,-56 16,-90 -3,-33 -4,-76 -16,-85 z"
   id="path33"
   style="stroke:#000000;stroke-opacity:1" />&#10;       </g>&#10;      </g><g
   class="com.sun.star.drawing.CustomShape"
   id="g31"
   style="stroke:#000000;stroke-opacity:1">&#10;       <g
   id="id21"
   style="stroke:#000000;stroke-opacity:1">&#10;        &#10;        <path
   fill="#ff8000"
   stroke="none"
   d="m 2526,6288 h -373 l -1,-89 h 746 l 1,89 z"
   id="path31"
   style="stroke:#000000;stroke-opacity:1" />&#10;       </g>&#10;      </g>&#10;      <g
   class="com.sun.star.drawing.CustomShape"
   id="g32"
   style="stroke:#000000;stroke-opacity:1">&#10;       <g
   id="id22"
   style="stroke:#000000;stroke-opacity:1">&#10;        &#10;        <path
   fill="#ff8000"
   stroke="none"
   d="m 2526,6499 h -373 l -1,-89 h 746 l 1,89 z"
   id="path32"
   style="stroke:#000000;stroke-opacity:1" />&#10;       </g>&#10;      </g>&#10;      &#10;      &#10;      <g
   class="com.sun.star.drawing.EllipseShape"
   id="g35"
   style="stroke:#000000;stroke-opacity:1"
   inkscape:export-filename="Parking Lights.png"
   inkscape:export-xdpi="82.18"
   inkscape:export-ydpi="82.18">&#10;       <g
   id="id25"
   style="stroke:#000000;stroke-opacity:1">&#10;        &#10;        <path
   fill="#00a933"
   stroke="none"
   d="m 2093,7223 c 17,-6 34,-9 51,-9 33,0 67,12 96,35 30,24 54,57 71,97 17,40 26,86 26,133 0,46 -9,92 -26,132 -17,40 -41,73 -71,97 -29,23 -63,35 -96,35 -17,0 -34,-3 -51,-9 z"
   id="path35"
   style="stroke:#000000;stroke-opacity:1" />&#10;       </g>&#10;      </g>&#10;      <g
   class="com.sun.star.drawing.CustomShape"
   id="g36"
   style="stroke:#000000;stroke-opacity:1">&#10;       <g
   id="id26"
   style="stroke:#000000;stroke-opacity:1">&#10;        &#10;        <path
   fill="#00a933"
   stroke="none"
   d="m 1806,7512 h -243 l 1,-73 h 486 l -1,73 z"
   id="path36"
   style="stroke:#000000;stroke-opacity:1" />&#10;       </g>&#10;      </g>&#10;      <g
   class="com.sun.star.drawing.CustomShape"
   id="g37"
   style="stroke:#000000;stroke-opacity:1">&#10;       <g
   id="id27"
   style="stroke:#000000;stroke-opacity:1">&#10;        &#10;        <path
   fill="#00a933"
   stroke="none"
   d="m 1799,7761 -248,44 -2,-67 497,-88 2,67 z"
   id="path37"
   style="stroke:#000000;stroke-opacity:1" />&#10;       </g>&#10;      </g>&#10;      <g
   class="com.sun.star.drawing.CustomShape"
   id="g38"
   style="stroke:#000000;stroke-opacity:1">&#10;       <g
   id="id28"
   style="stroke:#000000;stroke-opacity:1">&#10;        &#10;        <path
   fill="#00a933"
   stroke="none"
   d="m 1799,7193 249,44 -2,67 -497,-88 1,-67 z"
   id="path38"
   style="stroke:#000000;stroke-opacity:1" />&#10;       </g>&#10;      </g>&#10;      <g
   class="com.sun.star.drawing.EllipseShape"
   id="g39"
   style="stroke:#000000;stroke-opacity:1">&#10;       <g
   id="id29"
   style="stroke:#000000;stroke-opacity:1">&#10;        &#10;        <path
   fill="#00a933"
   stroke="none"
   d="m 2743,7734 c -16,6 -33,9 -49,9 -34,0 -68,-12 -97,-35 -30,-24 -54,-57 -71,-97 -17,-40 -26,-86 -26,-132 0,-47 9,-93 26,-133 17,-40 41,-73 71,-97 29,-23 63,-35 97,-35 16,0 33,3 49,9 z"
   id="path39"
   style="stroke:#000000;stroke-opacity:1" />&#10;       </g>&#10;      </g>&#10;      <g
   class="com.sun.star.drawing.CustomShape"
   id="g40"
   style="stroke:#000000;stroke-opacity:1">&#10;       <g
   id="id30"
   style="stroke:#000000;stroke-opacity:1">&#10;        &#10;        <path
   fill="#00a933"
   stroke="none"
   d="m 3030,7512 h -243 l -1,-73 h 486 l 1,73 z"
   id="path40"
   style="stroke:#000000;stroke-opacity:1" />&#10;       </g>&#10;      </g>&#10;      <g
   class="com.sun.star.drawing.CustomShape"
   id="g41"
   style="stroke:#000000;stroke-opacity:1">&#10;       <g
   id="id31"
   style="stroke:#000000;stroke-opacity:1">&#10;        &#10;        <path
   fill="#00a933"
   stroke="none"
   d="m 3037,7761 -249,-44 2,-67 497,88 -1,67 z"
   id="path41"
   style="stroke:#000000;stroke-opacity:1" />&#10;       </g>&#10;      </g>&#10;      <g
   class="com.sun.star.drawing.CustomShape"
   id="g42"
   style="stroke:#000000;stroke-opacity:1">&#10;       <g
   id="id32"
   style="stroke:#000000;stroke-opacity:1">&#10;        &#10;        <path
   fill="#00a933"
   stroke="none"
   d="m 3039,7193 248,-44 1,67 -497,88 -1,-67 z"
   id="path42"
   style="stroke:#000000;stroke-opacity:1" />&#10;       </g>&#10;      </g>&#10;      <g
   class="com.sun.star.drawing.EllipseShape"
   id="g43"
   style="stroke:#000000;stroke-opacity:1"
   inkscape:export-filename="DRLs.png"
   inkscape:export-xdpi="82.18"
   inkscape:export-ydpi="82.18">&#10;       <g
   id="id33"
   style="stroke:#000000;stroke-opacity:1">&#10;        &#10;        <path
   fill="#00a933"
   stroke="none"
   d="m 2570,8462 c 52,-8 106,-12 160,-12 109,0 216,17 310,48 94,31 173,77 227,131 54,54 83,116 83,179 0,63 -29,125 -83,179 -54,54 -133,100 -227,131 -94,31 -201,48 -310,48 -54,0 -108,-4 -160,-12 z"
   id="path43"
   style="stroke:#000000;stroke-opacity:1" />&#10;       </g>&#10;      </g>&#10;      <g
   class="com.sun.star.drawing.CustomShape"
   id="g44"
   style="stroke:#000000;stroke-opacity:1">&#10;       <g
   id="id34"
   style="stroke:#000000;stroke-opacity:1">&#10;        &#10;        <path
   fill="#00a933"
   stroke="none"
   d="m 2401,8801 c 0,17 -5,34 -13,50 -9,15 -22,28 -37,37 -16,8 -33,13 -51,13 -17,0 -34,-5 -50,-13 -15,-9 -28,-22 -37,-37 -8,-16 -13,-33 -13,-50 0,-18 5,-35 13,-51 9,-15 22,-28 37,-37 16,-8 33,-13 50,-13 18,0 35,5 51,13 15,9 28,22 37,37 8,16 13,33 13,51 z"
   id="path44"
   style="stroke:#000000;stroke-opacity:1" />&#10;       </g>&#10;      </g>&#10;      <g
   class="com.sun.star.drawing.CustomShape"
   id="g45"
   style="stroke:#000000;stroke-opacity:1">&#10;       <g
   id="id35"
   style="stroke:#000000;stroke-opacity:1">&#10;        &#10;        <path
   fill="#00a933"
   stroke="none"
   d="m 2451,8551 c 0,17 -5,34 -13,50 -9,15 -22,28 -37,37 -16,8 -33,13 -50,13 -18,0 -35,-5 -51,-13 -15,-9 -28,-22 -37,-37 -8,-16 -13,-33 -13,-50 0,-18 5,-35 13,-51 9,-15 22,-28 37,-37 16,-8 33,-13 51,-13 17,0 34,5 50,13 15,9 28,22 37,37 8,16 13,33 13,51 z"
   id="path45"
   style="stroke:#000000;stroke-opacity:1" />&#10;       </g>&#10;      </g>&#10;      <g
   class="com.sun.star.drawing.CustomShape"
   id="g46"
   style="stroke:#000000;stroke-opacity:1">&#10;       <g
   id="id36"
   style="stroke:#000000;stroke-opacity:1">&#10;        &#10;        <path
   fill="#00a933"
   stroke="none"
   d="m 2451,9052 c 0,17 -5,34 -13,50 -9,15 -22,28 -37,37 -16,8 -33,13 -50,13 -18,0 -35,-5 -51,-13 -15,-9 -28,-22 -37,-37 -8,-16 -13,-33 -13,-50 0,-18 5,-35 13,-51 9,-15 22,-28 37,-37 16,-8 33,-13 51,-13 17,0 34,5 50,13 15,9 28,22 37,37 8,16 13,33 13,51 z"
   id="path46"
   style="stroke:#000000;stroke-opacity:1" />&#10;       </g>&#10;      </g>&#10;      <g
   class="com.sun.star.drawing.CustomShape"
   id="g47"
   style="stroke:#000000;stroke-opacity:1">&#10;       <g
   id="id37"
   style="stroke:#000000;stroke-opacity:1">&#10;        &#10;        <path
   fill="#00a933"
   stroke="none"
   d="m 2151,8526 c 0,13 -3,26 -10,37 -7,12 -16,21 -28,28 -11,7 -24,10 -37,10 -14,0 -27,-3 -38,-10 -12,-7 -21,-16 -28,-28 -7,-11 -10,-24 -10,-37 0,-14 3,-27 10,-38 7,-12 16,-21 28,-28 11,-7 24,-10 38,-10 13,0 26,3 37,10 12,7 21,16 28,28 7,11 10,24 10,38 z"
   id="path47"
   style="stroke:#000000;stroke-opacity:1" />&#10;       </g>&#10;      </g>&#10;      <g
   class="com.sun.star.drawing.CustomShape"
   id="g48"
   style="stroke:#000000;stroke-opacity:1">&#10;       <g
   id="id38"
   style="stroke:#000000;stroke-opacity:1">&#10;        &#10;        <path
   fill="#00a933"
   stroke="none"
   d="m 2101,8801 c 0,13 -3,26 -10,37 -7,12 -16,21 -28,28 -11,7 -24,10 -37,10 -14,0 -27,-3 -38,-10 -12,-7 -21,-16 -28,-28 -7,-11 -10,-24 -10,-37 0,-14 3,-27 10,-38 7,-12 16,-21 28,-28 11,-7 24,-10 38,-10 13,0 26,3 37,10 12,7 21,16 28,28 7,11 10,24 10,38 z"
   id="path48"
   style="stroke:#000000;stroke-opacity:1" />&#10;       </g>&#10;      </g>&#10;      <g
   class="com.sun.star.drawing.CustomShape"
   id="g49"
   style="stroke:#000000;stroke-opacity:1">&#10;       <g
   id="id39"
   style="stroke:#000000;stroke-opacity:1">&#10;        &#10;        <path
   fill="#00a933"
   stroke="none"
   d="m 2151,9075 c 0,14 -3,27 -10,38 -7,12 -16,21 -28,28 -11,7 -24,10 -37,10 -14,0 -27,-3 -38,-10 -12,-7 -21,-16 -28,-28 -7,-11 -10,-24 -10,-38 0,-13 3,-26 10,-37 7,-12 16,-21 28,-28 11,-7 24,-10 38,-10 13,0 26,3 37,10 12,7 21,16 28,28 7,11 10,24 10,37 z"
   id="path49"
   style="stroke:#000000;stroke-opacity:1" />&#10;       </g>&#10;      </g>&#10;      <g
   class="com.sun.star.drawing.CustomShape"
   id="g50"
   style="stroke:#000000;stroke-opacity:1">&#10;       <g
   id="id40"
   style="stroke:#000000;stroke-opacity:1">&#10;        &#10;        <path
   fill="#00a933"
   stroke="none"
   d="m 1901,8501 c 0,8 -2,17 -7,25 -4,7 -11,14 -18,18 -8,5 -17,7 -25,7 -9,0 -18,-2 -26,-7 -7,-4 -14,-11 -18,-18 -5,-8 -7,-17 -7,-25 0,-9 2,-18 7,-26 4,-7 11,-14 18,-18 8,-5 17,-7 26,-7 8,0 17,2 25,7 7,4 14,11 18,18 5,8 7,17 7,26 z"
   id="path50"
   style="stroke:#000000;stroke-opacity:1" />&#10;       </g>&#10;      </g>&#10;      <g
   class="com.sun.star.drawing.CustomShape"
   id="g51"
   style="stroke:#000000;stroke-opacity:1">&#10;       <g
   id="id41"
   style="stroke:#000000;stroke-opacity:1">&#10;        &#10;        <path
   fill="#00a933"
   stroke="none"
   d="m 1851,8801 c 0,8 -2,17 -7,25 -4,7 -11,14 -18,18 -8,5 -17,7 -25,7 -9,0 -18,-2 -26,-7 -7,-4 -14,-11 -18,-18 -5,-8 -7,-17 -7,-25 0,-9 2,-18 7,-26 4,-7 11,-14 18,-18 8,-5 17,-7 26,-7 8,0 17,2 25,7 7,4 14,11 18,18 5,8 7,17 7,26 z"
   id="path51"
   style="stroke:#000000;stroke-opacity:1" />&#10;       </g>&#10;      </g>&#10;      <g
   class="com.sun.star.drawing.CustomShape"
   id="g52"
   style="stroke:#000000;stroke-opacity:1">&#10;       <g
   id="id42"
   style="stroke:#000000;stroke-opacity:1">&#10;        &#10;        <path
   fill="#00a933"
   stroke="none"
   d="m 1901,9101 c 0,8 -2,17 -7,25 -4,7 -11,14 -18,18 -8,5 -17,7 -25,7 -9,0 -18,-2 -26,-7 -7,-4 -14,-11 -18,-18 -5,-8 -7,-17 -7,-25 0,-9 2,-18 7,-26 4,-7 11,-14 18,-18 8,-5 17,-7 26,-7 8,0 17,2 25,7 7,4 14,11 18,18 5,8 7,17 7,26 z"
   id="path52"
   style="stroke:#000000;stroke-opacity:1" />&#10;       </g>&#10;      </g>&#10;     </g>&#10;    </g>&#10;   </g>&#10;  </g>&#10; </g>&#10;</svg>
