<?xml version="1.0" encoding="UTF-8" standalone="no"?>
<svg
   version="1.2"
   width="60mm"
   height="60mm"
   viewBox="0 0 6000 6000"
   preserveAspectRatio="xMidYMid"
   fill-rule="evenodd"
   stroke-width="28.222"
   stroke-linejoin="round"
   xml:space="preserve"
   id="svg1044"
   sodipodi:docname="Phone Symbol Reference.svg"
   inkscape:version="1.1.1 (3bf5ae0, 2021-09-20)"
   inkscape:export-filename="/run/user/1000/gvfs/smb-share:server=aidan-pc,share=local%20disc%20b/Documents/Civic Mods/AidF Infotainment System/Nav System/Symbols/Phone.png"
   inkscape:export-xdpi="62.947208"
   inkscape:export-ydpi="62.947208"
   xmlns:inkscape="http://www.inkscape.org/namespaces/inkscape"
   xmlns:sodipodi="http://sodipodi.sourceforge.net/DTD/sodipodi-0.dtd"
   xmlns="http://www.w3.org/2000/svg"
   xmlns:svg="http://www.w3.org/2000/svg"
   xmlns:ooo="http://xml.openoffice.org/svg/export"><sodipodi:namedview
   id="namedview1046"
   pagecolor="#ffffff"
   bordercolor="#666666"
   borderopacity="1.0"
   inkscape:pageshadow="2"
   inkscape:pageopacity="0.0"
   inkscape:pagecheckerboard="0"
   inkscape:document-units="mm"
   showgrid="false"
   inkscape:zoom="2.2489583"
   inkscape:cx="113.38583"
   inkscape:cy="113.38583"
   inkscape:window-width="1366"
   inkscape:window-height="707"
   inkscape:window-x="0"
   inkscape:window-y="24"
   inkscape:window-maximized="1"
   inkscape:current-layer="g1036" />
 <defs
   class="ClipPathGroup"
   id="defs972">
  <clipPath
   id="presentation_clip_path"
   clipPathUnits="userSpaceOnUse">
   <rect
   x="0"
   y="0"
   width="6000"
   height="6000"
   id="rect966" />
  </clipPath>
  <clipPath
   id="presentation_clip_path_shrink"
   clipPathUnits="userSpaceOnUse">
   <rect
   x="6"
   y="6"
   width="5988"
   height="5988"
   id="rect969" />
  </clipPath>
 </defs>
 <defs
   class="TextShapeIndex"
   id="defs976">
  <g
   ooo:slide="id1"
   ooo:id-list="id3 id4 id5"
   id="g974" />
 </defs>
 <defs
   class="EmbeddedBulletChars"
   id="defs1008">
  <g
   id="bullet-char-template-57356"
   transform="scale(0.00048828125,-0.00048828125)">
   <path
   d="M 580,1141 L 1163,571 580,0 -4,571 580,1141 Z"
   id="path978" />
  </g>
  <g
   id="bullet-char-template-57354"
   transform="scale(0.00048828125,-0.00048828125)">
   <path
   d="M 8,1128 L 1137,1128 1137,0 8,0 8,1128 Z"
   id="path981" />
  </g>
  <g
   id="bullet-char-template-10146"
   transform="scale(0.00048828125,-0.00048828125)">
   <path
   d="M 174,0 L 602,739 174,1481 1456,739 174,0 Z M 1358,739 L 309,1346 659,739 1358,739 Z"
   id="path984" />
  </g>
  <g
   id="bullet-char-template-10132"
   transform="scale(0.00048828125,-0.00048828125)">
   <path
   d="M 2015,739 L 1276,0 717,0 1260,543 174,543 174,936 1260,936 717,1481 1274,1481 2015,739 Z"
   id="path987" />
  </g>
  <g
   id="bullet-char-template-10007"
   transform="scale(0.00048828125,-0.00048828125)">
   <path
   d="M 0,-2 C -7,14 -16,27 -25,37 L 356,567 C 262,823 215,952 215,954 215,979 228,992 255,992 264,992 276,990 289,987 310,991 331,999 354,1012 L 381,999 492,748 772,1049 836,1024 860,1049 C 881,1039 901,1025 922,1006 886,937 835,863 770,784 769,783 710,716 594,584 L 774,223 C 774,196 753,168 711,139 L 727,119 C 717,90 699,76 672,76 641,76 570,178 457,381 L 164,-76 C 142,-110 111,-127 72,-127 30,-127 9,-110 8,-76 1,-67 -2,-52 -2,-32 -2,-23 -1,-13 0,-2 Z"
   id="path990" />
  </g>
  <g
   id="bullet-char-template-10004"
   transform="scale(0.00048828125,-0.00048828125)">
   <path
   d="M 285,-33 C 182,-33 111,30 74,156 52,228 41,333 41,471 41,549 55,616 82,672 116,743 169,778 240,778 293,778 328,747 346,684 L 369,508 C 377,444 397,411 428,410 L 1163,1116 C 1174,1127 1196,1133 1229,1133 1271,1133 1292,1118 1292,1087 L 1292,965 C 1292,929 1282,901 1262,881 L 442,47 C 390,-6 338,-33 285,-33 Z"
   id="path993" />
  </g>
  <g
   id="bullet-char-template-9679"
   transform="scale(0.00048828125,-0.00048828125)">
   <path
   d="M 813,0 C 632,0 489,54 383,161 276,268 223,411 223,592 223,773 276,916 383,1023 489,1130 632,1184 813,1184 992,1184 1136,1130 1245,1023 1353,916 1407,772 1407,592 1407,412 1353,268 1245,161 1136,54 992,0 813,0 Z"
   id="path996" />
  </g>
  <g
   id="bullet-char-template-8226"
   transform="scale(0.00048828125,-0.00048828125)">
   <path
   d="M 346,457 C 273,457 209,483 155,535 101,586 74,649 74,723 74,796 101,859 155,911 209,963 273,989 346,989 419,989 480,963 531,910 582,859 608,796 608,723 608,648 583,586 532,535 482,483 420,457 346,457 Z"
   id="path999" />
  </g>
  <g
   id="bullet-char-template-8211"
   transform="scale(0.00048828125,-0.00048828125)">
   <path
   d="M -4,459 L 1135,459 1135,606 -4,606 -4,459 Z"
   id="path1002" />
  </g>
  <g
   id="bullet-char-template-61548"
   transform="scale(0.00048828125,-0.00048828125)">
   <path
   d="M 173,740 C 173,903 231,1043 346,1159 462,1274 601,1332 765,1332 928,1332 1067,1274 1183,1159 1299,1043 1357,903 1357,740 1357,577 1299,437 1183,322 1067,206 928,148 765,148 601,148 462,206 346,322 231,437 173,577 173,740 Z"
   id="path1005" />
  </g>
 </defs>
 <g
   id="g1013">
  <g
   id="id2"
   class="Master_Slide">
   <g
   id="bg-id2"
   class="Background" />
   <g
   id="bo-id2"
   class="BackgroundObjects" />
  </g>
 </g>
 <g
   class="SlideGroup"
   id="g1042">
  <g
   id="g1040">
   <g
   id="container-id1">
    <g
   id="id1"
   class="Slide"
   clip-path="url(#presentation_clip_path)">
     <g
   class="Page"
   id="g1036">
      <g
   class="com.sun.star.drawing.CustomShape"
   id="g1020">
       <g
   id="id3">
        
        <path
   fill="#000000"
   stroke="none"
   d="m 2115,1195 v 0 c -46,31 -84,74 -108,124 -25,50 -35,106 -31,161 3,56 22,110 53,156 l 355,526 v 0 c 31,47 74,84 124,108 51,25 106,36 162,32 56,-4 109,-23 156,-54 v 0 0 c 46,-31 83,-74 108,-124 24,-50 35,-106 31,-162 -4,-55 -22,-109 -54,-155 l -355,-527 v 0 0 c -31,-46 -74,-83 -124,-108 -50,-24 -106,-35 -161,-31 -56,4 -110,22 -156,54 z"
   id="path1017" />
       </g>
      </g>
      <g
   class="com.sun.star.drawing.CustomShape"
   id="g1027">
       <g
   id="id4">
        
        <path
   fill="#000000"
   stroke="none"
   d="m 3570,3279 v 0 c -46,31 -84,74 -108,124 -25,50 -35,106 -31,161 3,56 22,110 53,156 l 355,526 v 0 c 31,47 74,84 124,108 51,25 106,36 162,32 56,-4 109,-23 156,-54 v 0 0 c 46,-31 83,-74 108,-124 24,-50 35,-106 31,-162 -4,-55 -22,-109 -54,-155 l -355,-527 v 0 0 c -31,-46 -74,-83 -124,-108 -50,-24 -106,-35 -161,-31 -56,4 -110,22 -156,54 z"
   id="path1024" />
       </g>
      </g>
      <g
   class="com.sun.star.drawing.CustomShape"
   id="g1034">
       <g
   id="id5">
        
        <path
   fill="#000000"
   stroke="none"
   d="m 2242,1446 -44,-10 -42,-7 -39,-3 -38,1 -35,4 -33,9 -30,13 -28,16 -25,19 -22,24 -19,28 -17,30 -13,34 -11,37 -9,41 -4,44 -2,47 v 49 l 4,53 8,55 10,58 13,60 15,63 19,64 21,67 23,68 27,69 30,71 32,73 34,73 37,75 39,75 42,75 43,76 45,76 48,76 48,75 51,75 51,74 54,74 55,72 55,71 57,70 57,68 58,67 59,65 59,62 60,61 59,57 59,56 59,52 58,50 58,47 58,45 57,40 55,38 54,35 53,30 53,28 50,23 49,20 47,16 46,13 42,9 42,5 38,2 37,-4 34,-6 33,-10 28,-13 27,-18 24,-21 21,-26 18,-28 16,-32 13,-35 9,-39 6,-42 5,-45 -658,-663 -1,19 -3,19 -5,17 -5,15 -7,14 -8,13 -9,11 -11,9 -13,8 -12,7 -15,4 -15,2 -16,2 -17,-1 -18,-2 -20,-4 -20,-5 -20,-8 -22,-8 -23,-11 -22,-12 -24,-14 -24,-15 -25,-16 -25,-18 -25,-20 -26,-21 -25,-22 -27,-23 -27,-25 -26,-25 -26,-27 -25,-27 -27,-30 -26,-29 -25,-30 -25,-31 -24,-31 -25,-32 -23,-33 -23,-33 -23,-33 -22,-33 -20,-33 -20,-34 -19,-33 -18,-34 -18,-33 -16,-33 -15,-32 -14,-33 -13,-31 -12,-31 -11,-30 -9,-30 -9,-28 -6,-28 -6,-26 -5,-26 -3,-24 -1,-24 -1,-22 1,-20 2,-20 4,-18 4,-17 7,-14 7,-14 9,-13 10,-9 10,-9 13,-8 14,-5 14,-5 15,-2 h 17 l 18,1 18,3 19,4 z"
   id="path1031" />
       </g>
      </g>
     </g>
    </g>
   </g>
  </g>
 </g>
</svg>
